<?xml version="1.0" encoding="utf-8" standalone="no"?>
<!DOCTYPE svg PUBLIC "-//W3C//DTD SVG 1.1//EN"
  "http://www.w3.org/Graphics/SVG/1.1/DTD/svg11.dtd">
<svg xmlns:xlink="http://www.w3.org/1999/xlink" width="612pt" height="446.4pt" viewBox="0 0 612 446.4" xmlns="http://www.w3.org/2000/svg" version="1.1">
 <metadata>
  <rdf:RDF xmlns:dc="http://purl.org/dc/elements/1.1/" xmlns:cc="http://creativecommons.org/ns#" xmlns:rdf="http://www.w3.org/1999/02/22-rdf-syntax-ns#">
   <cc:Work>
    <dc:type rdf:resource="http://purl.org/dc/dcmitype/StillImage"/>
    <dc:date>2026-09-17T09:31:30.532474</dc:date>
    <dc:format>image/svg+xml</dc:format>
    <dc:creator>
     <cc:Agent>
      <dc:title>Matplotlib v3.11.2, https://matplotlib.org/</dc:title>
     </cc:Agent>
    </dc:creator>
   </cc:Work>
  </rdf:RDF>
 </metadata>
 <defs>
  <style type="text/css">*{stroke-linejoin: round; stroke-linecap: butt}</style>
 </defs>
 <g id="figure_1">
  <g id="patch_1">
   <path d="M 0 446.4 
L 612 446.4 
L 612 0 
L 0 0 
z
" style="fill: #ffffff"/>
  </g>
  <g id="axes_1">
   <g id="patch_2">
    <path d="M 38.048498 404.44381 
L 598.130749 404.44381 
L 598.130749 24.397656 
L 38.048498 24.397656 
z
" style="fill: #ffffff"/>
   </g>
   <g id="layer-surge-0">
    <defs>
     <path id="mdebc3b8a74" d="M 175.932217 -79.562417 
L 158.549431 -79.562417 
L 184.349391 -95.28625 
L 207.046221 -120.265616 
L 244.517514 -150.969396 
L 285.422017 -195.165492 
L 327.012588 -261.289456 
L 390.127222 -345.905604 
L 440.413437 -385.543597 
L 498.873565 -422.002344 
L 572.672465 -422.002344 
L 572.672465 -422.002344 
L 504.521301 -385.543597 
L 445.899054 -345.905604 
L 372.321799 -261.289456 
L 323.836688 -195.165492 
L 276.151375 -150.969396 
L 232.468402 -120.265616 
L 206.00908 -95.28625 
L 175.932217 -79.562417 
z
"/>
    </defs>
    <g clip-path="url(#p0a6b5d87cd)">
     <use xlink:href="#mdebc3b8a74" x="0" y="446.4" style="fill: #d62728; fill-opacity: 0.15"/>
    </g>
   </g>
   <g id="layer-surge-2">
    <path d="M 158.549431 366.837583 
L 121.820352 366.837583 
L 121.820352 351.11375 
L 121.820352 326.134384 
L 121.820352 295.430604 
L 121.820352 251.234508 
L 121.820352 185.110544 
L 121.820352 100.494396 
L 121.820352 60.856403 
L 121.820352 24.397656 
L 498.873565 24.397656 
L 498.873565 24.397656 
L 440.413437 60.856403 
L 390.127222 100.494396 
L 327.012588 185.110544 
L 285.422017 251.234508 
L 244.517514 295.430604 
L 207.046221 326.134384 
L 184.349391 351.11375 
L 158.549431 366.837583 
z
" clip-path="url(#p0a6b5d87cd)" style="fill: url(#h4210e95220)"/>
   </g>
   <g id="matplotlib.axis_1">
    <g id="xtick_1">
     <g id="line2d_1">
      <path d="M 53.689645 404.44381 
L 53.689645 24.397656 
" clip-path="url(#p0a6b5d87cd)" style="fill: none; stroke: #b0b0b0; stroke-opacity: 0.3; stroke-width: 0.8; stroke-linecap: square"/>
     </g>
     <g id="line2d_2">
      <defs>
       <path id="m51fa1927a2" d="M 0 0 
L 0 3.5 
" style="stroke: #000000; stroke-width: 0.8"/>
      </defs>
      <g>
       <use xlink:href="#m51fa1927a2" x="53.689645" y="404.44381" style="stroke: #000000; stroke-width: 0.8"/>
      </g>
     </g>
     <g id="text_1">
      <!-- 0.0 -->
      <g transform="translate(45.738082 419.041466) scale(0.1 -0.1)">
       <defs>
        <path id="DejaVuSans-13" d="M 2034 4250 
Q 1547 4250 1301 3770 
Q 1056 3291 1056 2328 
Q 1056 1369 1301 889 
Q 1547 409 2034 409 
Q 2525 409 2770 889 
Q 3016 1369 3016 2328 
Q 3016 3291 2770 3770 
Q 2525 4250 2034 4250 
z
M 2034 4750 
Q 2819 4750 3233 4129 
Q 3647 3509 3647 2328 
Q 3647 1150 3233 529 
Q 2819 -91 2034 -91 
Q 1250 -91 836 529 
Q 422 1150 422 2328 
Q 422 3509 836 4129 
Q 1250 4750 2034 4750 
z
" transform="scale(0.015625)"/>
        <path id="DejaVuSans-11" d="M 684 794 
L 1344 794 
L 1344 0 
L 684 0 
L 684 794 
z
" transform="scale(0.015625)"/>
       </defs>
       <use xlink:href="#DejaVuSans-13"/>
       <use xlink:href="#DejaVuSans-11" transform="translate(63.625 0)"/>
       <use xlink:href="#DejaVuSans-13" transform="translate(95.40625 0)"/>
      </g>
     </g>
    </g>
    <g id="xtick_2">
     <g id="line2d_3">
      <path d="M 143.507853 404.44381 
L 143.507853 24.397656 
" clip-path="url(#p0a6b5d87cd)" style="fill: none; stroke: #b0b0b0; stroke-opacity: 0.3; stroke-width: 0.8; stroke-linecap: square"/>
     </g>
     <g id="line2d_4">
      <g>
       <use xlink:href="#m51fa1927a2" x="143.507853" y="404.44381" style="stroke: #000000; stroke-width: 0.8"/>
      </g>
     </g>
     <g id="text_2">
      <!-- 0.2 -->
      <g transform="translate(135.556291 419.041466) scale(0.1 -0.1)">
       <defs>
        <path id="DejaVuSans-15" d="M 1228 531 
L 3431 531 
L 3431 0 
L 469 0 
L 469 531 
Q 828 903 1448 1529 
Q 2069 2156 2228 2338 
Q 2531 2678 2651 2914 
Q 2772 3150 2772 3378 
Q 2772 3750 2511 3984 
Q 2250 4219 1831 4219 
Q 1534 4219 1204 4116 
Q 875 4013 500 3803 
L 500 4441 
Q 881 4594 1212 4672 
Q 1544 4750 1819 4750 
Q 2544 4750 2975 4387 
Q 3406 4025 3406 3419 
Q 3406 3131 3298 2873 
Q 3191 2616 2906 2266 
Q 2828 2175 2409 1742 
Q 1991 1309 1228 531 
z
" transform="scale(0.015625)"/>
       </defs>
       <use xlink:href="#DejaVuSans-13"/>
       <use xlink:href="#DejaVuSans-11" transform="translate(63.625 0)"/>
       <use xlink:href="#DejaVuSans-15" transform="translate(95.40625 0)"/>
      </g>
     </g>
    </g>
    <g id="xtick_3">
     <g id="line2d_5">
      <path d="M 233.326061 404.44381 
L 233.326061 24.397656 
" clip-path="url(#p0a6b5d87cd)" style="fill: none; stroke: #b0b0b0; stroke-opacity: 0.3; stroke-width: 0.8; stroke-linecap: square"/>
     </g>
     <g id="line2d_6">
      <g>
       <use xlink:href="#m51fa1927a2" x="233.326061" y="404.44381" style="stroke: #000000; stroke-width: 0.8"/>
      </g>
     </g>
     <g id="text_3">
      <!-- 0.4 -->
      <g transform="translate(225.374499 419.041466) scale(0.1 -0.1)">
       <defs>
        <path id="DejaVuSans-17" d="M 2419 4116 
L 825 1625 
L 2419 1625 
L 2419 4116 
z
M 2253 4666 
L 3047 4666 
L 3047 1625 
L 3713 1625 
L 3713 1100 
L 3047 1100 
L 3047 0 
L 2419 0 
L 2419 1100 
L 313 1100 
L 313 1709 
L 2253 4666 
z
" transform="scale(0.015625)"/>
       </defs>
       <use xlink:href="#DejaVuSans-13"/>
       <use xlink:href="#DejaVuSans-11" transform="translate(63.625 0)"/>
       <use xlink:href="#DejaVuSans-17" transform="translate(95.40625 0)"/>
      </g>
     </g>
    </g>
    <g id="xtick_4">
     <g id="line2d_7">
      <path d="M 323.14427 404.44381 
L 323.14427 24.397656 
" clip-path="url(#p0a6b5d87cd)" style="fill: none; stroke: #b0b0b0; stroke-opacity: 0.3; stroke-width: 0.8; stroke-linecap: square"/>
     </g>
     <g id="line2d_8">
      <g>
       <use xlink:href="#m51fa1927a2" x="323.14427" y="404.44381" style="stroke: #000000; stroke-width: 0.8"/>
      </g>
     </g>
     <g id="text_4">
      <!-- 0.6 -->
      <g transform="translate(315.192707 419.041466) scale(0.1 -0.1)">
       <defs>
        <path id="DejaVuSans-19" d="M 2113 2584 
Q 1688 2584 1439 2293 
Q 1191 2003 1191 1497 
Q 1191 994 1439 701 
Q 1688 409 2113 409 
Q 2538 409 2786 701 
Q 3034 994 3034 1497 
Q 3034 2003 2786 2293 
Q 2538 2584 2113 2584 
z
M 3366 4563 
L 3366 3988 
Q 3128 4100 2886 4159 
Q 2644 4219 2406 4219 
Q 1781 4219 1451 3797 
Q 1122 3375 1075 2522 
Q 1259 2794 1537 2939 
Q 1816 3084 2150 3084 
Q 2853 3084 3261 2657 
Q 3669 2231 3669 1497 
Q 3669 778 3244 343 
Q 2819 -91 2113 -91 
Q 1303 -91 875 529 
Q 447 1150 447 2328 
Q 447 3434 972 4092 
Q 1497 4750 2381 4750 
Q 2619 4750 2861 4703 
Q 3103 4656 3366 4563 
z
" transform="scale(0.015625)"/>
       </defs>
       <use xlink:href="#DejaVuSans-13"/>
       <use xlink:href="#DejaVuSans-11" transform="translate(63.625 0)"/>
       <use xlink:href="#DejaVuSans-19" transform="translate(95.40625 0)"/>
      </g>
     </g>
    </g>
    <g id="xtick_5">
     <g id="line2d_9">
      <path d="M 412.962478 404.44381 
L 412.962478 24.397656 
" clip-path="url(#p0a6b5d87cd)" style="fill: none; stroke: #b0b0b0; stroke-opacity: 0.3; stroke-width: 0.8; stroke-linecap: square"/>
     </g>
     <g id="line2d_10">
      <g>
       <use xlink:href="#m51fa1927a2" x="412.962478" y="404.44381" style="stroke: #000000; stroke-width: 0.8"/>
      </g>
     </g>
     <g id="text_5">
      <!-- 0.8 -->
      <g transform="translate(405.010915 419.041466) scale(0.1 -0.1)">
       <defs>
        <path id="DejaVuSans-1b" d="M 2034 2216 
Q 1584 2216 1326 1975 
Q 1069 1734 1069 1313 
Q 1069 891 1326 650 
Q 1584 409 2034 409 
Q 2484 409 2743 651 
Q 3003 894 3003 1313 
Q 3003 1734 2745 1975 
Q 2488 2216 2034 2216 
z
M 1403 2484 
Q 997 2584 770 2862 
Q 544 3141 544 3541 
Q 544 4100 942 4425 
Q 1341 4750 2034 4750 
Q 2731 4750 3128 4425 
Q 3525 4100 3525 3541 
Q 3525 3141 3298 2862 
Q 3072 2584 2669 2484 
Q 3125 2378 3379 2068 
Q 3634 1759 3634 1313 
Q 3634 634 3220 271 
Q 2806 -91 2034 -91 
Q 1263 -91 848 271 
Q 434 634 434 1313 
Q 434 1759 690 2068 
Q 947 2378 1403 2484 
z
M 1172 3481 
Q 1172 3119 1398 2916 
Q 1625 2713 2034 2713 
Q 2441 2713 2670 2916 
Q 2900 3119 2900 3481 
Q 2900 3844 2670 4047 
Q 2441 4250 2034 4250 
Q 1625 4250 1398 4047 
Q 1172 3844 1172 3481 
z
" transform="scale(0.015625)"/>
       </defs>
       <use xlink:href="#DejaVuSans-13"/>
       <use xlink:href="#DejaVuSans-11" transform="translate(63.625 0)"/>
       <use xlink:href="#DejaVuSans-1b" transform="translate(95.40625 0)"/>
      </g>
     </g>
    </g>
    <g id="xtick_6">
     <g id="line2d_11">
      <path d="M 502.780686 404.44381 
L 502.780686 24.397656 
" clip-path="url(#p0a6b5d87cd)" style="fill: none; stroke: #b0b0b0; stroke-opacity: 0.3; stroke-width: 0.8; stroke-linecap: square"/>
     </g>
     <g id="line2d_12">
      <g>
       <use xlink:href="#m51fa1927a2" x="502.780686" y="404.44381" style="stroke: #000000; stroke-width: 0.8"/>
      </g>
     </g>
     <g id="text_6">
      <!-- 1.0 -->
      <g transform="translate(494.829124 419.041466) scale(0.1 -0.1)">
       <defs>
        <path id="DejaVuSans-14" d="M 794 531 
L 1825 531 
L 1825 4091 
L 703 3866 
L 703 4441 
L 1819 4666 
L 2450 4666 
L 2450 531 
L 3481 531 
L 3481 0 
L 794 0 
L 794 531 
z
" transform="scale(0.015625)"/>
       </defs>
       <use xlink:href="#DejaVuSans-14"/>
       <use xlink:href="#DejaVuSans-11" transform="translate(63.625 0)"/>
       <use xlink:href="#DejaVuSans-13" transform="translate(95.40625 0)"/>
      </g>
     </g>
    </g>
    <g id="xtick_7">
     <g id="line2d_13">
      <path d="M 592.598895 404.44381 
L 592.598895 24.397656 
" clip-path="url(#p0a6b5d87cd)" style="fill: none; stroke: #b0b0b0; stroke-opacity: 0.3; stroke-width: 0.8; stroke-linecap: square"/>
     </g>
     <g id="line2d_14">
      <g>
       <use xlink:href="#m51fa1927a2" x="592.598895" y="404.44381" style="stroke: #000000; stroke-width: 0.8"/>
      </g>
     </g>
     <g id="text_7">
      <!-- 1.2 -->
      <g transform="translate(584.647332 419.041466) scale(0.1 -0.1)">
       <use xlink:href="#DejaVuSans-14"/>
       <use xlink:href="#DejaVuSans-11" transform="translate(63.625 0)"/>
       <use xlink:href="#DejaVuSans-15" transform="translate(95.40625 0)"/>
      </g>
     </g>
    </g>
    <g id="text_8">
     <!-- corrected flow  W sqrt(theta)/delta  [kg/s] -->
     <g transform="translate(214.020873 433.042248) scale(0.1 -0.1)">
      <defs>
       <path id="DejaVuSans-46" d="M 3122 3366 
L 3122 2828 
Q 2878 2963 2633 3030 
Q 2388 3097 2138 3097 
Q 1578 3097 1268 2742 
Q 959 2388 959 1747 
Q 959 1106 1268 751 
Q 1578 397 2138 397 
Q 2388 397 2633 464 
Q 2878 531 3122 666 
L 3122 134 
Q 2881 22 2623 -34 
Q 2366 -91 2075 -91 
Q 1284 -91 818 406 
Q 353 903 353 1747 
Q 353 2603 823 3093 
Q 1294 3584 2113 3584 
Q 2378 3584 2631 3529 
Q 2884 3475 3122 3366 
z
" transform="scale(0.015625)"/>
       <path id="DejaVuSans-52" d="M 1959 3097 
Q 1497 3097 1228 2736 
Q 959 2375 959 1747 
Q 959 1119 1226 758 
Q 1494 397 1959 397 
Q 2419 397 2687 759 
Q 2956 1122 2956 1747 
Q 2956 2369 2687 2733 
Q 2419 3097 1959 3097 
z
M 1959 3584 
Q 2709 3584 3137 3096 
Q 3566 2609 3566 1747 
Q 3566 888 3137 398 
Q 2709 -91 1959 -91 
Q 1206 -91 779 398 
Q 353 888 353 1747 
Q 353 2609 779 3096 
Q 1206 3584 1959 3584 
z
" transform="scale(0.015625)"/>
       <path id="DejaVuSans-55" d="M 2631 2963 
Q 2534 3019 2420 3045 
Q 2306 3072 2169 3072 
Q 1681 3072 1420 2755 
Q 1159 2438 1159 1844 
L 1159 0 
L 581 0 
L 581 3500 
L 1159 3500 
L 1159 2956 
Q 1341 3275 1631 3429 
Q 1922 3584 2338 3584 
Q 2397 3584 2469 3576 
Q 2541 3569 2628 3553 
L 2631 2963 
z
" transform="scale(0.015625)"/>
       <path id="DejaVuSans-48" d="M 3597 1894 
L 3597 1613 
L 953 1613 
Q 991 1019 1311 708 
Q 1631 397 2203 397 
Q 2534 397 2845 478 
Q 3156 559 3463 722 
L 3463 178 
Q 3153 47 2828 -22 
Q 2503 -91 2169 -91 
Q 1331 -91 842 396 
Q 353 884 353 1716 
Q 353 2575 817 3079 
Q 1281 3584 2069 3584 
Q 2775 3584 3186 3129 
Q 3597 2675 3597 1894 
z
M 3022 2063 
Q 3016 2534 2758 2815 
Q 2500 3097 2075 3097 
Q 1594 3097 1305 2825 
Q 1016 2553 972 2059 
L 3022 2063 
z
" transform="scale(0.015625)"/>
       <path id="DejaVuSans-57" d="M 1172 4494 
L 1172 3500 
L 2356 3500 
L 2356 3053 
L 1172 3053 
L 1172 1153 
Q 1172 725 1289 603 
Q 1406 481 1766 481 
L 2356 481 
L 2356 0 
L 1766 0 
Q 1100 0 847 248 
Q 594 497 594 1153 
L 594 3053 
L 172 3053 
L 172 3500 
L 594 3500 
L 594 4494 
L 1172 4494 
z
" transform="scale(0.015625)"/>
       <path id="DejaVuSans-47" d="M 2906 2969 
L 2906 4863 
L 3481 4863 
L 3481 0 
L 2906 0 
L 2906 525 
Q 2725 213 2448 61 
Q 2172 -91 1784 -91 
Q 1150 -91 751 415 
Q 353 922 353 1747 
Q 353 2572 751 3078 
Q 1150 3584 1784 3584 
Q 2172 3584 2448 3432 
Q 2725 3281 2906 2969 
z
M 947 1747 
Q 947 1113 1208 752 
Q 1469 391 1925 391 
Q 2381 391 2643 752 
Q 2906 1113 2906 1747 
Q 2906 2381 2643 2742 
Q 2381 3103 1925 3103 
Q 1469 3103 1208 2742 
Q 947 2381 947 1747 
z
" transform="scale(0.015625)"/>
       <path id="DejaVuSans-3" transform="scale(0.015625)"/>
       <path id="DejaVuSans-13b0" d="M 1831 4863 
L 3431 4863 
L 3431 0 
L 2853 0 
L 2853 4384 
L 1825 4384 
Q 1516 4384 1395 4259 
Q 1275 4134 1275 3809 
L 1275 3500 
L 2222 3500 
L 2222 3053 
L 1275 3053 
L 1275 0 
L 697 0 
L 697 3053 
L 147 3053 
L 147 3500 
L 697 3500 
L 697 3744 
Q 697 4328 969 4595 
Q 1241 4863 1831 4863 
z
" transform="scale(0.015625)"/>
       <path id="DejaVuSans-5a" d="M 269 3500 
L 844 3500 
L 1563 769 
L 2278 3500 
L 2956 3500 
L 3675 769 
L 4391 3500 
L 4966 3500 
L 4050 0 
L 3372 0 
L 2619 2869 
L 1863 0 
L 1184 0 
L 269 3500 
z
" transform="scale(0.015625)"/>
       <path id="DejaVuSans-3a" d="M 213 4666 
L 850 4666 
L 1831 722 
L 2809 4666 
L 3519 4666 
L 4500 722 
L 5478 4666 
L 6119 4666 
L 4947 0 
L 4153 0 
L 3169 4050 
L 2175 0 
L 1381 0 
L 213 4666 
z
" transform="scale(0.015625)"/>
       <path id="DejaVuSans-56" d="M 2834 3397 
L 2834 2853 
Q 2591 2978 2328 3040 
Q 2066 3103 1784 3103 
Q 1356 3103 1142 2972 
Q 928 2841 928 2578 
Q 928 2378 1081 2264 
Q 1234 2150 1697 2047 
L 1894 2003 
Q 2506 1872 2764 1633 
Q 3022 1394 3022 966 
Q 3022 478 2636 193 
Q 2250 -91 1575 -91 
Q 1294 -91 989 -36 
Q 684 19 347 128 
L 347 722 
Q 666 556 975 473 
Q 1284 391 1588 391 
Q 1994 391 2212 530 
Q 2431 669 2431 922 
Q 2431 1156 2273 1281 
Q 2116 1406 1581 1522 
L 1381 1569 
Q 847 1681 609 1914 
Q 372 2147 372 2553 
Q 372 3047 722 3315 
Q 1072 3584 1716 3584 
Q 2034 3584 2315 3537 
Q 2597 3491 2834 3397 
z
" transform="scale(0.015625)"/>
       <path id="DejaVuSans-54" d="M 947 1747 
Q 947 1113 1208 752 
Q 1469 391 1925 391 
Q 2381 391 2643 752 
Q 2906 1113 2906 1747 
Q 2906 2381 2643 2742 
Q 2381 3103 1925 3103 
Q 1469 3103 1208 2742 
Q 947 2381 947 1747 
z
M 2906 525 
Q 2725 213 2448 61 
Q 2172 -91 1784 -91 
Q 1150 -91 751 415 
Q 353 922 353 1747 
Q 353 2572 751 3078 
Q 1150 3584 1784 3584 
Q 2172 3584 2448 3432 
Q 2725 3281 2906 2969 
L 2906 3500 
L 3481 3500 
L 3481 -1331 
L 2906 -1331 
L 2906 525 
z
" transform="scale(0.015625)"/>
       <path id="DejaVuSans-b" d="M 1984 4856 
Q 1566 4138 1362 3434 
Q 1159 2731 1159 2009 
Q 1159 1288 1364 580 
Q 1569 -128 1984 -844 
L 1484 -844 
Q 1016 -109 783 600 
Q 550 1309 550 2009 
Q 550 2706 781 3412 
Q 1013 4119 1484 4856 
L 1984 4856 
z
" transform="scale(0.015625)"/>
       <path id="DejaVuSans-4b" d="M 3513 2113 
L 3513 0 
L 2938 0 
L 2938 2094 
Q 2938 2591 2744 2837 
Q 2550 3084 2163 3084 
Q 1697 3084 1428 2787 
Q 1159 2491 1159 1978 
L 1159 0 
L 581 0 
L 581 4863 
L 1159 4863 
L 1159 2956 
Q 1366 3272 1645 3428 
Q 1925 3584 2291 3584 
Q 2894 3584 3203 3211 
Q 3513 2838 3513 2113 
z
" transform="scale(0.015625)"/>
       <path id="DejaVuSans-44" d="M 2194 1759 
Q 1497 1759 1228 1600 
Q 959 1441 959 1056 
Q 959 750 1161 570 
Q 1363 391 1709 391 
Q 2188 391 2477 730 
Q 2766 1069 2766 1631 
L 2766 1759 
L 2194 1759 
z
M 3341 1997 
L 3341 0 
L 2766 0 
L 2766 531 
Q 2569 213 2275 61 
Q 1981 -91 1556 -91 
Q 1019 -91 701 211 
Q 384 513 384 1019 
Q 384 1609 779 1909 
Q 1175 2209 1959 2209 
L 2766 2209 
L 2766 2266 
Q 2766 2663 2505 2880 
Q 2244 3097 1772 3097 
Q 1472 3097 1187 3025 
Q 903 2953 641 2809 
L 641 3341 
Q 956 3463 1253 3523 
Q 1550 3584 1831 3584 
Q 2591 3584 2966 3190 
Q 3341 2797 3341 1997 
z
" transform="scale(0.015625)"/>
       <path id="DejaVuSans-c" d="M 513 4856 
L 1013 4856 
Q 1481 4119 1714 3412 
Q 1947 2706 1947 2009 
Q 1947 1309 1714 600 
Q 1481 -109 1013 -844 
L 513 -844 
Q 928 -128 1133 580 
Q 1338 1288 1338 2009 
Q 1338 2731 1133 3434 
Q 928 4138 513 4856 
z
" transform="scale(0.015625)"/>
       <path id="DejaVuSans-12" d="M 1625 4666 
L 2156 4666 
L 531 -594 
L 0 -594 
L 1625 4666 
z
" transform="scale(0.015625)"/>
       <path id="DejaVuSans-4f" d="M 603 4863 
L 1178 4863 
L 1178 0 
L 603 0 
L 603 4863 
z
" transform="scale(0.015625)"/>
       <path id="DejaVuSans-3e" d="M 550 4863 
L 1875 4863 
L 1875 4416 
L 1125 4416 
L 1125 -397 
L 1875 -397 
L 1875 -844 
L 550 -844 
L 550 4863 
z
" transform="scale(0.015625)"/>
       <path id="DejaVuSans-4e" d="M 581 4863 
L 1159 4863 
L 1159 1991 
L 2875 3500 
L 3609 3500 
L 1753 1863 
L 3688 0 
L 2938 0 
L 1159 1709 
L 1159 0 
L 581 0 
L 581 4863 
z
" transform="scale(0.015625)"/>
       <path id="DejaVuSans-4a" d="M 2906 1791 
Q 2906 2416 2648 2759 
Q 2391 3103 1925 3103 
Q 1463 3103 1205 2759 
Q 947 2416 947 1791 
Q 947 1169 1205 825 
Q 1463 481 1925 481 
Q 2391 481 2648 825 
Q 2906 1169 2906 1791 
z
M 3481 434 
Q 3481 -459 3084 -895 
Q 2688 -1331 1869 -1331 
Q 1566 -1331 1297 -1286 
Q 1028 -1241 775 -1147 
L 775 -588 
Q 1028 -725 1275 -790 
Q 1522 -856 1778 -856 
Q 2344 -856 2625 -561 
Q 2906 -266 2906 331 
L 2906 616 
Q 2728 306 2450 153 
Q 2172 0 1784 0 
Q 1141 0 747 490 
Q 353 981 353 1791 
Q 353 2603 747 3093 
Q 1141 3584 1784 3584 
Q 2172 3584 2450 3431 
Q 2728 3278 2906 2969 
L 2906 3500 
L 3481 3500 
L 3481 434 
z
" transform="scale(0.015625)"/>
       <path id="DejaVuSans-40" d="M 1947 4863 
L 1947 -844 
L 622 -844 
L 622 -397 
L 1369 -397 
L 1369 4416 
L 622 4416 
L 622 4863 
L 1947 4863 
z
" transform="scale(0.015625)"/>
      </defs>
      <use xlink:href="#DejaVuSans-46"/>
      <use xlink:href="#DejaVuSans-52" transform="translate(54.984375 0)"/>
      <use xlink:href="#DejaVuSans-55" transform="translate(116.171875 0)"/>
      <use xlink:href="#DejaVuSans-55" transform="translate(155.53125 0)"/>
      <use xlink:href="#DejaVuSans-48" transform="translate(194.4375 0)"/>
      <use xlink:href="#DejaVuSans-46" transform="translate(255.96875 0)"/>
      <use xlink:href="#DejaVuSans-57" transform="translate(310.953125 0)"/>
      <use xlink:href="#DejaVuSans-48" transform="translate(350.15625 0)"/>
      <use xlink:href="#DejaVuSans-47" transform="translate(411.6875 0)"/>
      <use xlink:href="#DejaVuSans-3" transform="translate(475.171875 0)"/>
      <use xlink:href="#DejaVuSans-13b0" transform="translate(506.953125 0)"/>
      <use xlink:href="#DejaVuSans-52" transform="translate(569.9375 0)"/>
      <use xlink:href="#DejaVuSans-5a" transform="translate(631.125 0)"/>
      <use xlink:href="#DejaVuSans-3" transform="translate(712.90625 0)"/>
      <use xlink:href="#DejaVuSans-3" transform="translate(744.6875 0)"/>
      <use xlink:href="#DejaVuSans-3a" transform="translate(776.46875 0)"/>
      <use xlink:href="#DejaVuSans-3" transform="translate(875.34375 0)"/>
      <use xlink:href="#DejaVuSans-56" transform="translate(907.125 0)"/>
      <use xlink:href="#DejaVuSans-54" transform="translate(959.21875 0)"/>
      <use xlink:href="#DejaVuSans-55" transform="translate(1022.703125 0)"/>
      <use xlink:href="#DejaVuSans-57" transform="translate(1063.8125 0)"/>
      <use xlink:href="#DejaVuSans-b" transform="translate(1103.015625 0)"/>
      <use xlink:href="#DejaVuSans-57" transform="translate(1142.03125 0)"/>
      <use xlink:href="#DejaVuSans-4b" transform="translate(1181.234375 0)"/>
      <use xlink:href="#DejaVuSans-48" transform="translate(1244.609375 0)"/>
      <use xlink:href="#DejaVuSans-57" transform="translate(1306.140625 0)"/>
      <use xlink:href="#DejaVuSans-44" transform="translate(1345.34375 0)"/>
      <use xlink:href="#DejaVuSans-c" transform="translate(1406.625 0)"/>
      <use xlink:href="#DejaVuSans-12" transform="translate(1445.640625 0)"/>
      <use xlink:href="#DejaVuSans-47" transform="translate(1479.328125 0)"/>
      <use xlink:href="#DejaVuSans-48" transform="translate(1542.8125 0)"/>
      <use xlink:href="#DejaVuSans-4f" transform="translate(1604.34375 0)"/>
      <use xlink:href="#DejaVuSans-57" transform="translate(1632.125 0)"/>
      <use xlink:href="#DejaVuSans-44" transform="translate(1671.328125 0)"/>
      <use xlink:href="#DejaVuSans-3" transform="translate(1732.609375 0)"/>
      <use xlink:href="#DejaVuSans-3" transform="translate(1764.390625 0)"/>
      <use xlink:href="#DejaVuSans-3e" transform="translate(1796.171875 0)"/>
      <use xlink:href="#DejaVuSans-4e" transform="translate(1835.1875 0)"/>
      <use xlink:href="#DejaVuSans-4a" transform="translate(1893.09375 0)"/>
      <use xlink:href="#DejaVuSans-12" transform="translate(1956.578125 0)"/>
      <use xlink:href="#DejaVuSans-56" transform="translate(1990.265625 0)"/>
      <use xlink:href="#DejaVuSans-40" transform="translate(2042.359375 0)"/>
     </g>
    </g>
   </g>
   <g id="matplotlib.axis_2">
    <g id="ytick_1">
     <g id="line2d_15">
      <path d="M 38.048498 386.43999 
L 598.130749 386.43999 
" clip-path="url(#p0a6b5d87cd)" style="fill: none; stroke: #b0b0b0; stroke-opacity: 0.3; stroke-width: 0.8; stroke-linecap: square"/>
     </g>
     <g id="line2d_16">
      <defs>
       <path id="m6903bc927f" d="M 0 0 
L -3.5 0 
" style="stroke: #000000; stroke-width: 0.8"/>
      </defs>
      <g>
       <use xlink:href="#m6903bc927f" x="38.048498" y="386.43999" style="stroke: #000000; stroke-width: 0.8"/>
      </g>
     </g>
     <g id="text_9">
      <!-- 1 -->
      <g transform="translate(24.685998 390.238818) scale(0.1 -0.1)">
       <use xlink:href="#DejaVuSans-14"/>
      </g>
     </g>
    </g>
    <g id="ytick_2">
     <g id="line2d_17">
      <path d="M 38.048498 306.793083 
L 598.130749 306.793083 
" clip-path="url(#p0a6b5d87cd)" style="fill: none; stroke: #b0b0b0; stroke-opacity: 0.3; stroke-width: 0.8; stroke-linecap: square"/>
     </g>
     <g id="line2d_18">
      <g>
       <use xlink:href="#m6903bc927f" x="38.048498" y="306.793083" style="stroke: #000000; stroke-width: 0.8"/>
      </g>
     </g>
     <g id="text_10">
      <!-- 2 -->
      <g transform="translate(24.685998 310.591911) scale(0.1 -0.1)">
       <use xlink:href="#DejaVuSans-15"/>
      </g>
     </g>
    </g>
    <g id="ytick_3">
     <g id="line2d_19">
      <path d="M 38.048498 227.146176 
L 598.130749 227.146176 
" clip-path="url(#p0a6b5d87cd)" style="fill: none; stroke: #b0b0b0; stroke-opacity: 0.3; stroke-width: 0.8; stroke-linecap: square"/>
     </g>
     <g id="line2d_20">
      <g>
       <use xlink:href="#m6903bc927f" x="38.048498" y="227.146176" style="stroke: #000000; stroke-width: 0.8"/>
      </g>
     </g>
     <g id="text_11">
      <!-- 3 -->
      <g transform="translate(24.685998 230.945004) scale(0.1 -0.1)">
       <defs>
        <path id="DejaVuSans-16" d="M 2597 2516 
Q 3050 2419 3304 2112 
Q 3559 1806 3559 1356 
Q 3559 666 3084 287 
Q 2609 -91 1734 -91 
Q 1441 -91 1130 -33 
Q 819 25 488 141 
L 488 750 
Q 750 597 1062 519 
Q 1375 441 1716 441 
Q 2309 441 2620 675 
Q 2931 909 2931 1356 
Q 2931 1769 2642 2001 
Q 2353 2234 1838 2234 
L 1294 2234 
L 1294 2753 
L 1863 2753 
Q 2328 2753 2575 2939 
Q 2822 3125 2822 3475 
Q 2822 3834 2567 4026 
Q 2313 4219 1838 4219 
Q 1578 4219 1281 4162 
Q 984 4106 628 3988 
L 628 4550 
Q 988 4650 1302 4700 
Q 1616 4750 1894 4750 
Q 2613 4750 3031 4423 
Q 3450 4097 3450 3541 
Q 3450 3153 3228 2886 
Q 3006 2619 2597 2516 
z
" transform="scale(0.015625)"/>
       </defs>
       <use xlink:href="#DejaVuSans-16"/>
      </g>
     </g>
    </g>
    <g id="ytick_4">
     <g id="line2d_21">
      <path d="M 38.048498 147.49927 
L 598.130749 147.49927 
" clip-path="url(#p0a6b5d87cd)" style="fill: none; stroke: #b0b0b0; stroke-opacity: 0.3; stroke-width: 0.8; stroke-linecap: square"/>
     </g>
     <g id="line2d_22">
      <g>
       <use xlink:href="#m6903bc927f" x="38.048498" y="147.49927" style="stroke: #000000; stroke-width: 0.8"/>
      </g>
     </g>
     <g id="text_12">
      <!-- 4 -->
      <g transform="translate(24.685998 151.298098) scale(0.1 -0.1)">
       <use xlink:href="#DejaVuSans-17"/>
      </g>
     </g>
    </g>
    <g id="ytick_5">
     <g id="line2d_23">
      <path d="M 38.048498 67.852363 
L 598.130749 67.852363 
" clip-path="url(#p0a6b5d87cd)" style="fill: none; stroke: #b0b0b0; stroke-opacity: 0.3; stroke-width: 0.8; stroke-linecap: square"/>
     </g>
     <g id="line2d_24">
      <g>
       <use xlink:href="#m6903bc927f" x="38.048498" y="67.852363" style="stroke: #000000; stroke-width: 0.8"/>
      </g>
     </g>
     <g id="text_13">
      <!-- 5 -->
      <g transform="translate(24.685998 71.651191) scale(0.1 -0.1)">
       <defs>
        <path id="DejaVuSans-18" d="M 691 4666 
L 3169 4666 
L 3169 4134 
L 1269 4134 
L 1269 2991 
Q 1406 3038 1543 3061 
Q 1681 3084 1819 3084 
Q 2600 3084 3056 2656 
Q 3513 2228 3513 1497 
Q 3513 744 3044 326 
Q 2575 -91 1722 -91 
Q 1428 -91 1123 -41 
Q 819 9 494 109 
L 494 744 
Q 775 591 1075 516 
Q 1375 441 1709 441 
Q 2250 441 2565 725 
Q 2881 1009 2881 1497 
Q 2881 1984 2565 2268 
Q 2250 2553 1709 2553 
Q 1456 2553 1204 2497 
Q 953 2441 691 2322 
L 691 4666 
z
" transform="scale(0.015625)"/>
       </defs>
       <use xlink:href="#DejaVuSans-18"/>
      </g>
     </g>
    </g>
    <g id="text_14">
     <!-- total pressure ratio -->
     <g transform="translate(18.283654 262.155889) rotate(-90) scale(0.1 -0.1)">
      <defs>
       <path id="DejaVuSans-53" d="M 1159 525 
L 1159 -1331 
L 581 -1331 
L 581 3500 
L 1159 3500 
L 1159 2969 
Q 1341 3281 1617 3432 
Q 1894 3584 2278 3584 
Q 2916 3584 3314 3078 
Q 3713 2572 3713 1747 
Q 3713 922 3314 415 
Q 2916 -91 2278 -91 
Q 1894 -91 1617 61 
Q 1341 213 1159 525 
z
M 3116 1747 
Q 3116 2381 2855 2742 
Q 2594 3103 2138 3103 
Q 1681 3103 1420 2742 
Q 1159 2381 1159 1747 
Q 1159 1113 1420 752 
Q 1681 391 2138 391 
Q 2594 391 2855 752 
Q 3116 1113 3116 1747 
z
" transform="scale(0.015625)"/>
       <path id="DejaVuSans-58" d="M 544 1381 
L 544 3500 
L 1119 3500 
L 1119 1403 
Q 1119 906 1312 657 
Q 1506 409 1894 409 
Q 2359 409 2629 706 
Q 2900 1003 2900 1516 
L 2900 3500 
L 3475 3500 
L 3475 0 
L 2900 0 
L 2900 538 
Q 2691 219 2414 64 
Q 2138 -91 1772 -91 
Q 1169 -91 856 284 
Q 544 659 544 1381 
z
M 1991 3584 
L 1991 3584 
z
" transform="scale(0.015625)"/>
       <path id="DejaVuSans-4c" d="M 603 3500 
L 1178 3500 
L 1178 0 
L 603 0 
L 603 3500 
z
M 603 4863 
L 1178 4863 
L 1178 4134 
L 603 4134 
L 603 4863 
z
" transform="scale(0.015625)"/>
      </defs>
      <use xlink:href="#DejaVuSans-57"/>
      <use xlink:href="#DejaVuSans-52" transform="translate(39.203125 0)"/>
      <use xlink:href="#DejaVuSans-57" transform="translate(100.390625 0)"/>
      <use xlink:href="#DejaVuSans-44" transform="translate(139.59375 0)"/>
      <use xlink:href="#DejaVuSans-4f" transform="translate(200.875 0)"/>
      <use xlink:href="#DejaVuSans-3" transform="translate(228.65625 0)"/>
      <use xlink:href="#DejaVuSans-53" transform="translate(260.4375 0)"/>
      <use xlink:href="#DejaVuSans-55" transform="translate(323.921875 0)"/>
      <use xlink:href="#DejaVuSans-48" transform="translate(362.828125 0)"/>
      <use xlink:href="#DejaVuSans-56" transform="translate(424.359375 0)"/>
      <use xlink:href="#DejaVuSans-56" transform="translate(476.453125 0)"/>
      <use xlink:href="#DejaVuSans-58" transform="translate(528.546875 0)"/>
      <use xlink:href="#DejaVuSans-55" transform="translate(591.921875 0)"/>
      <use xlink:href="#DejaVuSans-48" transform="translate(630.828125 0)"/>
      <use xlink:href="#DejaVuSans-3" transform="translate(692.359375 0)"/>
      <use xlink:href="#DejaVuSans-55" transform="translate(724.140625 0)"/>
      <use xlink:href="#DejaVuSans-44" transform="translate(765.25 0)"/>
      <use xlink:href="#DejaVuSans-57" transform="translate(826.53125 0)"/>
      <use xlink:href="#DejaVuSans-4c" transform="translate(865.734375 0)"/>
      <use xlink:href="#DejaVuSans-52" transform="translate(893.515625 0)"/>
     </g>
    </g>
   </g>
   <g id="layer-speed-0">
    <path d="M 167.240824 366.837583 
L 172.17507 368.246398 
L 177.109315 369.177485 
L 182.043561 369.580172 
L 186.977807 370.001542 
L 191.912052 370.442856 
L 196.846298 370.905199 
L 201.780543 371.389541 
" clip-path="url(#p0a6b5d87cd)" style="fill: none; stroke: #404040; stroke-linecap: square"/>
   </g>
   <g id="layer-speed-2">
    <path d="M 195.179236 351.11375 
L 200.835906 352.953772 
L 206.492576 354.958089 
L 212.149247 357.133137 
L 217.805917 358.328974 
L 223.462587 358.942009 
" clip-path="url(#p0a6b5d87cd)" style="fill: none; stroke: #404040; stroke-linecap: square"/>
   </g>
   <g id="layer-speed-4">
    <path d="M 219.757312 326.134384 
L 226.396599 328.364023 
L 233.035886 330.784936 
L 239.675173 333.415313 
L 246.314461 336.268938 
L 252.953748 339.356742 
" clip-path="url(#p0a6b5d87cd)" style="fill: none; stroke: #404040; stroke-linecap: square"/>
   </g>
   <g id="layer-speed-6">
    <path d="M 260.334445 295.430604 
L 268.278387 298.620056 
L 276.22233 302.059673 
L 284.166273 305.784096 
L 292.110216 309.819952 
" clip-path="url(#p0a6b5d87cd)" style="fill: none; stroke: #404040; stroke-linecap: square"/>
   </g>
   <g id="layer-speed-8">
    <path d="M 304.629353 251.234508 
L 314.276103 255.763007 
L 323.922853 260.575635 
L 333.569603 265.753389 
L 343.216353 271.357153 
" clip-path="url(#p0a6b5d87cd)" style="fill: none; stroke: #404040; stroke-linecap: square"/>
   </g>
   <g id="layer-speed-10">
    <path d="M 349.667194 185.110544 
L 361.500201 191.924332 
L 373.333209 198.75133 
L 385.166217 205.871401 
L 396.999224 213.471969 
L 408.832232 221.691257 
" clip-path="url(#p0a6b5d87cd)" style="fill: none; stroke: #404040; stroke-linecap: square"/>
   </g>
   <g id="layer-speed-12">
    <path d="M 418.013138 100.494396 
L 432.578576 111.968841 
L 447.144015 122.908036 
L 461.709453 134.085041 
L 476.274891 145.98655 
L 490.840329 158.987109 
" clip-path="url(#p0a6b5d87cd)" style="fill: none; stroke: #404040; stroke-linecap: square"/>
   </g>
   <g id="layer-speed-14">
    <path d="M 472.467369 60.856403 
L 488.566232 75.281501 
L 504.665095 89.869237 
L 520.763958 105.59217 
L 536.862821 123.400783 
" clip-path="url(#p0a6b5d87cd)" style="fill: none; stroke: #404040; stroke-linecap: square"/>
   </g>
   <g id="layer-speed-16">
    <path d="M 535.773015 24.397656 
L 552.982365 45.736181 
L 570.191714 78.502576 
" clip-path="url(#p0a6b5d87cd)" style="fill: none; stroke: #404040; stroke-linecap: square"/>
   </g>
   <g id="layer-surge-1">
    <path d="M 167.240824 366.837583 
L 195.179236 351.11375 
L 219.757312 326.134384 
L 260.334445 295.430604 
L 304.629353 251.234508 
L 349.667194 185.110544 
L 418.013138 100.494396 
L 472.467369 60.856403 
L 535.773015 24.397656 
" clip-path="url(#p0a6b5d87cd)" style="fill: none; stroke: #d62728; stroke-width: 1.6; stroke-linecap: square"/>
   </g>
   <g id="layer-choke-0">
    <path d="M 201.928782 371.389541 
L 223.63253 358.942009 
L 253.153212 339.356742 
L 292.348876 309.819952 
L 343.50617 271.357153 
L 409.18773 221.691257 
L 491.277918 158.987109 
L 537.346478 123.400783 
L 570.708733 78.502576 
" clip-path="url(#p0a6b5d87cd)" style="fill: none; stroke-dasharray: 4.44,1.92; stroke-dashoffset: 0; stroke: #9467bd; stroke-width: 1.2"/>
   </g>
   <g id="layer-eta-0">
    <path clip-path="url(#p0a6b5d87cd)" style="fill: none; stroke: #2ca02c; stroke-opacity: 0.8; stroke-width: 0.6"/>
    <path clip-path="url(#p0a6b5d87cd)" style="fill: none; stroke: #2ca02c; stroke-opacity: 0.8; stroke-width: 0.6"/>
    <path clip-path="url(#p0a6b5d87cd)" style="fill: none; stroke: #2ca02c; stroke-opacity: 0.8; stroke-width: 0.6"/>
    <path d="M 176.32919 369.030276 
L 177.531617 368.665266 
L 179.698089 368.231551 
L 181.487006 367.990547 
L 183.346775 367.714739 
L 185.314918 367.385701 
L 187.496125 366.950749 
L 189.902344 366.404542 
L 192.56337 365.733535 
L 195.574686 364.890959 
L 195.826134 364.812562 
M 215.131058 358.852394 
L 215.319342 358.791244 
L 217.138119 358.187799 
L 218.129736 357.884709 
L 219.622905 357.627433 
L 221.020448 357.441075 
L 222.481227 357.225038 
L 224.019454 356.972655 
L 225.653943 356.675094 
L 227.410142 356.320412 
" clip-path="url(#p0a6b5d87cd)" style="fill: none; stroke: #2ca02c; stroke-opacity: 0.8; stroke-width: 0.6"/>
    <path d="M 168.236122 367.121759 
L 169.21748 366.731399 
L 174.69752 364.608456 
L 177.314107 363.643687 
M 196.59932 357.651582 
L 198.784588 357.081223 
L 201.600032 356.335964 
L 204.623434 355.488552 
L 206.433189 354.943394 
L 207.830471 354.24826 
L 210.967267 352.689293 
L 214.003333 351.25688 
L 216.94733 349.940142 
L 219.806955 348.729409 
L 222.589066 347.616061 
L 225.007659 346.796653 
L 227.266659 346.118576 
L 229.590041 345.424562 
L 231.981832 344.713613 
L 234.446401 343.984649 
L 236.988495 343.236494 
L 239.609132 342.473353 
L 242.434731 341.616787 
L 245.522617 340.637126 
L 248.931735 339.506706 
L 251.430407 338.648265 
L 253.126939 337.830662 
L 258.040879 335.51938 
" clip-path="url(#p0a6b5d87cd)" style="fill: none; stroke: #2ca02c; stroke-opacity: 0.8; stroke-width: 0.6"/>
    <path d="M 191.453558 353.210574 
L 195.115597 352.021112 
L 196.589143 351.57237 
L 198.311961 350.569502 
L 201.328873 348.881355 
L 204.238752 347.335695 
L 207.051812 345.918929 
L 209.836342 344.568144 
L 212.762442 343.138486 
L 214.279216 342.439218 
M 233.085143 335.169114 
L 234.05947 334.855444 
L 236.54625 334.113147 
L 238.97573 333.44284 
L 239.417369 333.317212 
L 244.666504 330.473314 
L 250.801569 327.208775 
L 256.405435 324.340306 
L 261.556865 321.809181 
L 266.385289 319.524203 
L 271.11165 317.335723 
L 275.741258 315.23401 
L 280.079964 313.352061 
L 284.122719 311.691 
L 287.907457 310.222513 
L 290.806502 309.15761 
L 292.160888 308.391646 
L 299.190506 304.491281 
" clip-path="url(#p0a6b5d87cd)" style="fill: none; stroke: #2ca02c; stroke-opacity: 0.8; stroke-width: 0.6"/>
    <path d="M 217.041862 328.894169 
L 219.560821 327.868926 
L 222.000235 326.949577 
L 222.089074 326.917448 
L 230.772922 321.561273 
L 238.831605 316.730146 
L 246.079575 312.516973 
L 252.746815 308.749585 
L 258.998794 305.304426 
L 265.040259 302.037738 
L 269.546044 299.666942 
M 286.145199 288.445373 
L 290.929812 285.336117 
L 297.179437 281.410896 
L 303.241249 277.734246 
L 309.639791 273.8697 
L 316.347282 269.85004 
L 322.853217 266.09214 
L 328.419578 262.989187 
L 329.493397 262.183757 
L 338.661311 255.442144 
L 348.30365 248.594626 
L 358.446453 241.635391 
L 369.30621 234.396362 
L 380.942845 226.85656 
L 394.326428 218.273811 
L 399.344376 215.100927 
L 438.95012 184.490939 
L 482.478981 151.524085 
L 503.197233 132.717974 
L 526.206215 111.612411 
L 529.522076 106.827633 
L 544.254506 85.753381 
L 556.639082 68.311339 
L 561.37606 61.717677 
" clip-path="url(#p0a6b5d87cd)" style="fill: none; stroke: #2ca02c; stroke-opacity: 0.8; stroke-width: 0.6"/>
    <path d="M 272.55088 283.241421 
L 279.13453 278.372259 
L 285.449254 273.867385 
L 291.518483 269.69506 
L 297.363002 265.827127 
L 303.001315 262.238521 
L 308.449949 258.906857 
L 313.723709 255.812078 
L 314.006186 255.637685 
L 320.474273 249.929376 
L 327.511701 243.936986 
L 333.468833 239.13256 
M 349.450969 227.099559 
L 356.421684 222.003665 
L 364.563189 216.252548 
L 373.10238 210.391977 
L 381.788016 204.684929 
L 382.470635 204.249435 
L 412.754688 178.571228 
L 451.346544 146.338554 
L 463.951507 135.917037 
L 469.83467 130.225857 
L 487.51029 112.728542 
L 504.699512 95.654989 
L 507.645062 92.779618 
L 518.266804 79.43241 
L 528.605386 66.362766 
L 535.279342 57.361534 
L 541.221604 49.448029 
L 546.562573 42.428397 
L 548.392775 40.045375 
" clip-path="url(#p0a6b5d87cd)" style="fill: none; stroke: #2ca02c; stroke-opacity: 0.8; stroke-width: 0.6"/>
    <path d="M 341.053023 197.757755 
L 346.59371 193.615187 
L 352.051996 189.833298 
L 354.777014 188.052926 
L 365.43056 177.271631 
L 386.006574 157.148649 
L 405.454847 139.01644 
L 425.597268 120.738202 
L 426.619044 119.774687 
M 440.410941 105.471907 
L 445.496653 99.238415 
L 453.539624 89.47643 
L 462.709425 78.961584 
L 473.176808 67.579795 
L 476.299642 64.290243 
L 479.120963 60.213742 
L 483.159301 54.698747 
" clip-path="url(#p0a6b5d87cd)" style="fill: none; stroke: #2ca02c; stroke-opacity: 0.8; stroke-width: 0.6"/>
   </g>
   <g id="layer-run-0">
    <path d="M 163.355213 365.827984 
L 181.666545 359.11419 
L 199.516255 352.524511 
L 219.602825 342.813423 
L 239.392828 333.303452 
L 262.531654 319.826753 
L 284.61025 306.009654 
L 311.019223 286.947637 
L 336.24763 267.309045 
L 366.15542 240.114307 
L 394.248401 211.705062 
L 426.378655 172.150777 
L 454.869335 128.836175 
L 486.917813 73.804465 
" clip-path="url(#p0a6b5d87cd)" style="fill: none; stroke: #1f77b4; stroke-width: 1.8; stroke-linecap: square"/>
   </g>
   <g id="layer-run-1">
    <defs>
     <path id="mf247e76f71" d="M 0 2 
C 0.530406 2 1.03916 1.789267 1.414214 1.414214 
C 1.789267 1.03916 2 0.530406 2 0 
C 2 -0.530406 1.789267 -1.03916 1.414214 -1.414214 
C 1.03916 -1.789267 0.530406 -2 0 -2 
C -0.530406 -2 -1.03916 -1.789267 -1.414214 -1.414214 
C -1.789267 -1.03916 -2 -0.530406 -2 0 
C -2 0.530406 -1.789267 1.03916 -1.414214 1.414214 
C -1.03916 1.789267 -0.530406 2 0 2 
z
" style="stroke: #1f77b4"/>
    </defs>
    <g clip-path="url(#p0a6b5d87cd)">
     <use xlink:href="#mf247e76f71" x="163.355213" y="365.827984" style="fill: #1f77b4; stroke: #1f77b4"/>
     <use xlink:href="#mf247e76f71" x="181.666545" y="359.11419" style="fill: #1f77b4; stroke: #1f77b4"/>
     <use xlink:href="#mf247e76f71" x="199.516255" y="352.524511" style="fill: #1f77b4; stroke: #1f77b4"/>
     <use xlink:href="#mf247e76f71" x="219.602825" y="342.813423" style="fill: #1f77b4; stroke: #1f77b4"/>
     <use xlink:href="#mf247e76f71" x="239.392828" y="333.303452" style="fill: #1f77b4; stroke: #1f77b4"/>
     <use xlink:href="#mf247e76f71" x="262.531654" y="319.826753" style="fill: #1f77b4; stroke: #1f77b4"/>
     <use xlink:href="#mf247e76f71" x="284.61025" y="306.009654" style="fill: #1f77b4; stroke: #1f77b4"/>
     <use xlink:href="#mf247e76f71" x="311.019223" y="286.947637" style="fill: #1f77b4; stroke: #1f77b4"/>
     <use xlink:href="#mf247e76f71" x="336.24763" y="267.309045" style="fill: #1f77b4; stroke: #1f77b4"/>
     <use xlink:href="#mf247e76f71" x="366.15542" y="240.114307" style="fill: #1f77b4; stroke: #1f77b4"/>
     <use xlink:href="#mf247e76f71" x="394.248401" y="211.705062" style="fill: #1f77b4; stroke: #1f77b4"/>
     <use xlink:href="#mf247e76f71" x="426.378655" y="172.150777" style="fill: #1f77b4; stroke: #1f77b4"/>
     <use xlink:href="#mf247e76f71" x="454.869335" y="128.836175" style="fill: #1f77b4; stroke: #1f77b4"/>
     <use xlink:href="#mf247e76f71" x="486.917813" y="73.804465" style="fill: #1f77b4; stroke: #1f77b4"/>
    </g>
   </g>
   <g id="layer-transient-0">
    <path d="M 63.506782 386.346374 
L 65.273548 386.309647 
L 66.998288 386.267943 
L 68.676671 386.221812 
L 70.305123 386.171823 
L 71.880775 386.118551 
L 73.401423 386.062565 
L 74.865471 386.004418 
L 76.27188 385.944639 
L 77.620112 385.883725 
L 78.910076 385.822138 
L 80.142073 385.760301 
L 81.316743 385.698595 
L 82.435015 385.63736 
L 83.498038 385.576899 
L 84.50704 385.51748 
L 85.463552 385.459325 
L 86.369258 385.402621 
L 77.150683 384.88953 
L 77.150683 384.88953 
L 77.150683 384.88953 
L 77.150683 384.88953 
L 77.150683 384.88953 
L 77.150683 384.88953 
L 77.150683 384.88953 
L 77.150683 384.88953 
L 77.150683 384.88953 
L 77.150683 384.88953 
L 77.150683 384.88953 
L 77.150683 384.88953 
L 77.150683 384.88953 
L 77.150683 384.88953 
L 77.150683 384.88953 
L 77.150683 384.88953 
L 77.150683 384.88953 
L 93.854346 382.48221 
L 93.854346 382.48221 
L 93.854346 382.48221 
L 93.854346 382.48221 
L 93.854346 382.48221 
L 93.854346 382.48221 
L 95.403583 381.545661 
L 95.403583 381.545661 
L 95.403583 381.545661 
L 95.403583 381.545661 
L 95.403583 381.545661 
L 95.403583 381.545661 
L 95.403583 381.545661 
L 100.671243 380.228303 
L 100.671243 380.228303 
L 100.671243 380.228303 
L 100.671243 380.228303 
L 100.671243 380.228303 
L 105.469997 378.918429 
L 105.469997 378.918429 
L 105.469997 378.918429 
L 109.56814 377.688009 
L 109.56814 377.688009 
L 112.985089 376.567411 
L 112.985089 376.567411 
L 116.248832 375.486696 
L 118.847769 374.543485 
L 121.238633 373.664406 
L 124.349599 372.65686 
L 128.318193 371.637494 
L 132.716056 370.607459 
L 136.882503 369.490496 
L 140.458298 368.434474 
L 142.675694 367.761445 
L 144.961939 367.091302 
L 147.282108 366.421606 
L 149.546718 365.726048 
L 151.872559 365.010443 
L 154.259187 364.273644 
L 157.120594 363.370473 
L 160.142921 362.324043 
L 163.067677 361.230035 
L 166.027304 360.100155 
L 169.032142 358.922832 
L 172.110376 357.693133 
L 175.603002 356.502696 
L 179.548727 355.536994 
L 183.304589 354.785592 
L 186.520485 354.17906 
L 189.233675 353.695064 
L 191.514922 353.335286 
L 193.34865 353.082994 
L 194.810308 352.90416 
L 195.950948 352.779652 
L 196.83555 352.70277 
L 197.478195 352.659324 
L 197.92699 352.63666 
L 198.22976 352.626657 
L 198.426464 352.623942 
L 198.551946 352.622959 
L 198.607409 352.618518 
L 198.652037 352.620774 
L 198.683085 352.626408 
L 198.686405 352.624915 
L 198.708668 352.633043 
L 198.702891 352.635638 
L 198.697009 352.63828 
L 198.691018 352.640972 
L 198.684918 352.643712 
L 198.678706 352.646503 
L 198.672379 352.649345 
L 198.665937 352.652239 
L 198.659377 352.655186 
L 198.652696 352.658187 
L 198.621913 352.653463 
L 198.624343 352.65237 
L 198.626818 352.651258 
L 198.629339 352.650125 
L 198.631905 352.648971 
L 198.634519 352.647796 
L 198.63718 352.6466 
L 198.639891 352.645381 
L 198.642651 352.64414 
L 198.645462 352.642877 
L 198.648324 352.64159 
L 198.651239 352.64028 
L 198.654208 352.638945 
L 198.657231 352.637586 
L 198.66031 352.636202 
L 198.663445 352.634793 
" clip-path="url(#p0a6b5d87cd)" style="fill: none; stroke: #ff7f0e; stroke-opacity: 0.9; stroke-linecap: square"/>
   </g>
   <g id="layer-transient-2">
    <path d="M 225.908794 359.207113 
L 198.104842 356.291702 
L 190.471378 354.435617 
L 188.521772 352.818348 
L 189.394364 351.263581 
L 191.740558 349.608019 
L 195.690554 347.518337 
L 199.926778 345.361086 
L 204.294086 343.127246 
L 208.826941 340.825886 
L 213.535141 338.482434 
L 218.09443 335.995886 
L 222.722651 333.418359 
L 227.511454 330.758073 
L 233.483316 327.560549 
L 240.003705 323.910132 
L 246.448583 320.188311 
L 252.564872 316.274443 
L 258.752893 312.184128 
L 265.144979 308.021192 
L 271.664104 303.781897 
L 279.336674 298.856772 
L 287.487984 293.143868 
L 295.340571 287.221337 
L 303.169113 281.112012 
L 311.107835 274.825779 
L 319.018547 268.289967 
L 327.235002 261.346789 
L 337.817478 252.534368 
L 347.685991 243.585873 
L 357.284418 234.343087 
L 366.741323 224.76431 
L 376.148865 214.917914 
L 385.733527 204.666275 
L 397.384832 192.288808 
L 407.559096 180.175435 
L 416.956 168.213448 
L 425.609496 156.376468 
L 434.498765 145.391609 
L 442.303332 138.096371 
L 447.422726 133.285631 
L 450.944124 130.305834 
L 453.1462 129.006975 
L 454.122966 128.693242 
L 454.405247 128.749728 
L 454.381703 128.889911 
L 454.237167 129.025939 
L 454.142604 129.114926 
L 454.080739 129.17314 
L 454.040267 129.211221 
L 453.971965 129.165029 
L 454.025321 129.114811 
L 454.060232 129.081952 
L 454.083075 129.060452 
L 454.098021 129.046383 
L 454.107801 129.037177 
L 454.1142 129.031154 
L 454.118387 129.027213 
L 454.121127 129.024634 
L 454.12292 129.022946 
" clip-path="url(#p0a6b5d87cd)" style="fill: none; stroke: #d62728; stroke-opacity: 0.9; stroke-linecap: square"/>
   </g>
   <g id="layer-transient-4">
    <path d="M 497.1391 164.609153 
L 497.1391 164.609153 
L 497.1391 164.609153 
L 225.095418 352.607364 
L 211.622497 353.315492 
L 204.446835 353.484749 
L 200.686712 353.399272 
L 198.753368 353.245563 
L 197.810164 353.117042 
L 197.435986 352.99679 
L 197.393888 352.89795 
L 197.519499 352.822882 
L 197.705797 352.761716 
L 197.911943 352.718478 
L 198.100934 352.688141 
L 198.25986 352.667877 
L 198.38535 352.655042 
L 198.458478 352.640607 
L 198.549991 352.641882 
L 198.59966 352.639028 
L 198.614779 352.632229 
L 198.65013 352.635579 
L 198.655864 352.633001 
L 198.661704 352.630375 
L 198.691726 352.635515 
L 198.688346 352.637033 
L 198.684904 352.63858 
L 198.681399 352.640154 
L 198.67783 352.641758 
L 198.674195 352.643391 
L 198.670494 352.645054 
L 198.666724 352.646747 
L 198.662886 352.648472 
L 198.658978 352.650228 
L 198.654998 352.652016 
L 198.650945 352.653837 
L 198.646818 352.655691 
L 198.642616 352.657579 
L 198.638337 352.659501 
L 198.63398 352.661459 
L 198.613196 352.652897 
L 198.617871 352.650795 
L 198.622631 352.648655 
L 198.627479 352.646476 
L 198.632415 352.644257 
L 198.637442 352.641997 
L 198.642561 352.639696 
L 198.647774 352.637352 
L 198.653082 352.634965 
L 198.658489 352.632535 
L 198.663994 352.63006 
L 198.688428 352.637179 
L 198.684891 352.638768 
L 198.68129 352.640387 
L 198.677622 352.642034 
L 198.673887 352.643713 
L 198.670083 352.645421 
L 198.66621 352.647161 
L 198.662266 352.648933 
L 198.65825 352.650738 
" clip-path="url(#p0a6b5d87cd)" style="fill: none; stroke: #17becf; stroke-opacity: 0.9; stroke-linecap: square"/>
   </g>
   <g id="layer-run-10">
    <defs>
     <path id="m36b04c789f" d="M 0 -4.5 
L -1.010313 -1.390576 
L -4.279754 -1.390576 
L -1.634721 0.531153 
L -2.645034 3.640576 
L -0 1.718847 
L 2.645034 3.640576 
L 1.634721 0.531153 
L 4.279754 -1.390576 
L 1.010313 -1.390576 
z
" style="stroke: #000000; stroke-linejoin: bevel"/>
    </defs>
    <g clip-path="url(#p0a6b5d87cd)">
     <use xlink:href="#m36b04c789f" x="451.158267" y="125.940789" style="stroke: #000000; stroke-linejoin: bevel"/>
    </g>
   </g>
   <g id="patch_3">
    <path d="M 38.048498 404.44381 
L 38.048498 24.397656 
" style="fill: none; stroke: #000000; stroke-width: 0.8; stroke-linejoin: miter; stroke-linecap: square"/>
   </g>
   <g id="patch_4">
    <path d="M 598.130749 404.44381 
L 598.130749 24.397656 
" style="fill: none; stroke: #000000; stroke-width: 0.8; stroke-linejoin: miter; stroke-linecap: square"/>
   </g>
   <g id="patch_5">
    <path d="M 38.048498 404.44381 
L 598.130749 404.44381 
" style="fill: none; stroke: #000000; stroke-width: 0.8; stroke-linejoin: miter; stroke-linecap: square"/>
   </g>
   <g id="patch_6">
    <path d="M 38.048498 24.397656 
L 598.130749 24.397656 
" style="fill: none; stroke: #000000; stroke-width: 0.8; stroke-linejoin: miter; stroke-linecap: square"/>
   </g>
   <g id="layer-speed-1">
    <!-- 0.40 -->
    <g style="fill: #404040" transform="translate(204.780543 379.389541) scale(0.07 -0.07)">
     <use xlink:href="#DejaVuSans-13"/>
     <use xlink:href="#DejaVuSans-11" transform="translate(63.625 0)"/>
     <use xlink:href="#DejaVuSans-17" transform="translate(95.40625 0)"/>
     <use xlink:href="#DejaVuSans-13" transform="translate(159.03125 0)"/>
    </g>
   </g>
   <g id="layer-speed-3">
    <!-- 0.50 -->
    <g style="fill: #404040" transform="translate(226.462587 366.942009) scale(0.07 -0.07)">
     <use xlink:href="#DejaVuSans-13"/>
     <use xlink:href="#DejaVuSans-11" transform="translate(63.625 0)"/>
     <use xlink:href="#DejaVuSans-18" transform="translate(95.40625 0)"/>
     <use xlink:href="#DejaVuSans-13" transform="translate(159.03125 0)"/>
    </g>
   </g>
   <g id="layer-speed-5">
    <!-- 0.60 -->
    <g style="fill: #404040" transform="translate(255.953748 347.356742) scale(0.07 -0.07)">
     <use xlink:href="#DejaVuSans-13"/>
     <use xlink:href="#DejaVuSans-11" transform="translate(63.625 0)"/>
     <use xlink:href="#DejaVuSans-19" transform="translate(95.40625 0)"/>
     <use xlink:href="#DejaVuSans-13" transform="translate(159.03125 0)"/>
    </g>
   </g>
   <g id="layer-speed-7">
    <!-- 0.70 -->
    <g style="fill: #404040" transform="translate(295.110216 317.819952) scale(0.07 -0.07)">
     <defs>
      <path id="DejaVuSans-1a" d="M 525 4666 
L 3525 4666 
L 3525 4397 
L 1831 0 
L 1172 0 
L 2766 4134 
L 525 4134 
L 525 4666 
z
" transform="scale(0.015625)"/>
     </defs>
     <use xlink:href="#DejaVuSans-13"/>
     <use xlink:href="#DejaVuSans-11" transform="translate(63.625 0)"/>
     <use xlink:href="#DejaVuSans-1a" transform="translate(95.40625 0)"/>
     <use xlink:href="#DejaVuSans-13" transform="translate(159.03125 0)"/>
    </g>
   </g>
   <g id="layer-speed-9">
    <!-- 0.80 -->
    <g style="fill: #404040" transform="translate(346.216353 279.357153) scale(0.07 -0.07)">
     <use xlink:href="#DejaVuSans-13"/>
     <use xlink:href="#DejaVuSans-11" transform="translate(63.625 0)"/>
     <use xlink:href="#DejaVuSans-1b" transform="translate(95.40625 0)"/>
     <use xlink:href="#DejaVuSans-13" transform="translate(159.03125 0)"/>
    </g>
   </g>
   <g id="layer-speed-11">
    <!-- 0.90 -->
    <g style="fill: #404040" transform="translate(411.832232 229.691257) scale(0.07 -0.07)">
     <defs>
      <path id="DejaVuSans-1c" d="M 703 97 
L 703 672 
Q 941 559 1184 500 
Q 1428 441 1663 441 
Q 2288 441 2617 861 
Q 2947 1281 2994 2138 
Q 2813 1869 2534 1725 
Q 2256 1581 1919 1581 
Q 1219 1581 811 2004 
Q 403 2428 403 3163 
Q 403 3881 828 4315 
Q 1253 4750 1959 4750 
Q 2769 4750 3195 4129 
Q 3622 3509 3622 2328 
Q 3622 1225 3098 567 
Q 2575 -91 1691 -91 
Q 1453 -91 1209 -44 
Q 966 3 703 97 
z
M 1959 2075 
Q 2384 2075 2632 2365 
Q 2881 2656 2881 3163 
Q 2881 3666 2632 3958 
Q 2384 4250 1959 4250 
Q 1534 4250 1286 3958 
Q 1038 3666 1038 3163 
Q 1038 2656 1286 2365 
Q 1534 2075 1959 2075 
z
" transform="scale(0.015625)"/>
     </defs>
     <use xlink:href="#DejaVuSans-13"/>
     <use xlink:href="#DejaVuSans-11" transform="translate(63.625 0)"/>
     <use xlink:href="#DejaVuSans-1c" transform="translate(95.40625 0)"/>
     <use xlink:href="#DejaVuSans-13" transform="translate(159.03125 0)"/>
    </g>
   </g>
   <g id="layer-speed-13">
    <!-- 1.00 -->
    <g style="fill: #404040" transform="translate(493.840329 166.987109) scale(0.07 -0.07)">
     <use xlink:href="#DejaVuSans-14"/>
     <use xlink:href="#DejaVuSans-11" transform="translate(63.625 0)"/>
     <use xlink:href="#DejaVuSans-13" transform="translate(95.40625 0)"/>
     <use xlink:href="#DejaVuSans-13" transform="translate(159.03125 0)"/>
    </g>
   </g>
   <g id="layer-speed-15">
    <!-- 1.05 -->
    <g style="fill: #404040" transform="translate(539.862821 131.400783) scale(0.07 -0.07)">
     <use xlink:href="#DejaVuSans-14"/>
     <use xlink:href="#DejaVuSans-11" transform="translate(63.625 0)"/>
     <use xlink:href="#DejaVuSans-13" transform="translate(95.40625 0)"/>
     <use xlink:href="#DejaVuSans-18" transform="translate(159.03125 0)"/>
    </g>
   </g>
   <g id="layer-speed-17">
    <!-- 1.10 -->
    <g style="fill: #404040" transform="translate(573.191714 86.502576) scale(0.07 -0.07)">
     <use xlink:href="#DejaVuSans-14"/>
     <use xlink:href="#DejaVuSans-11" transform="translate(63.625 0)"/>
     <use xlink:href="#DejaVuSans-14" transform="translate(95.40625 0)"/>
     <use xlink:href="#DejaVuSans-13" transform="translate(159.03125 0)"/>
    </g>
   </g>
   <g id="layer-run-2">
    <!-- SM -0.04 -->
    <g style="fill: #1f77b4; opacity: 0.9" transform="translate(169.355213 374.827984) scale(0.06 -0.06)">
     <defs>
      <path id="DejaVuSans-36" d="M 3425 4513 
L 3425 3897 
Q 3066 4069 2747 4153 
Q 2428 4238 2131 4238 
Q 1616 4238 1336 4038 
Q 1056 3838 1056 3469 
Q 1056 3159 1242 3001 
Q 1428 2844 1947 2747 
L 2328 2669 
Q 3034 2534 3370 2195 
Q 3706 1856 3706 1288 
Q 3706 609 3251 259 
Q 2797 -91 1919 -91 
Q 1588 -91 1214 -16 
Q 841 59 441 206 
L 441 856 
Q 825 641 1194 531 
Q 1563 422 1919 422 
Q 2459 422 2753 634 
Q 3047 847 3047 1241 
Q 3047 1584 2836 1778 
Q 2625 1972 2144 2069 
L 1759 2144 
Q 1053 2284 737 2584 
Q 422 2884 422 3419 
Q 422 4038 858 4394 
Q 1294 4750 2059 4750 
Q 2388 4750 2728 4690 
Q 3069 4631 3425 4513 
z
" transform="scale(0.015625)"/>
      <path id="DejaVuSans-30" d="M 628 4666 
L 1569 4666 
L 2759 1491 
L 3956 4666 
L 4897 4666 
L 4897 0 
L 4281 0 
L 4281 4097 
L 3078 897 
L 2444 897 
L 1241 4097 
L 1241 0 
L 628 0 
L 628 4666 
z
" transform="scale(0.015625)"/>
      <path id="DejaVuSans-10" d="M 313 2009 
L 1997 2009 
L 1997 1497 
L 313 1497 
L 313 2009 
z
" transform="scale(0.015625)"/>
     </defs>
     <use xlink:href="#DejaVuSans-36"/>
     <use xlink:href="#DejaVuSans-30" transform="translate(63.484375 0)"/>
     <use xlink:href="#DejaVuSans-3" transform="translate(149.765625 0)"/>
     <use xlink:href="#DejaVuSans-10" transform="translate(181.546875 0)"/>
     <use xlink:href="#DejaVuSans-13" transform="translate(217.625 0)"/>
     <use xlink:href="#DejaVuSans-11" transform="translate(281.25 0)"/>
     <use xlink:href="#DejaVuSans-13" transform="translate(313.03125 0)"/>
     <use xlink:href="#DejaVuSans-17" transform="translate(376.65625 0)"/>
    </g>
   </g>
   <g id="layer-run-3">
    <!-- SM +0.04 -->
    <g style="fill: #1f77b4; opacity: 0.9" transform="translate(205.516255 361.524511) scale(0.06 -0.06)">
     <defs>
      <path id="DejaVuSans-e" d="M 2944 4013 
L 2944 2272 
L 4684 2272 
L 4684 1741 
L 2944 1741 
L 2944 0 
L 2419 0 
L 2419 1741 
L 678 1741 
L 678 2272 
L 2419 2272 
L 2419 4013 
L 2944 4013 
z
" transform="scale(0.015625)"/>
     </defs>
     <use xlink:href="#DejaVuSans-36"/>
     <use xlink:href="#DejaVuSans-30" transform="translate(63.484375 0)"/>
     <use xlink:href="#DejaVuSans-3" transform="translate(149.765625 0)"/>
     <use xlink:href="#DejaVuSans-e" transform="translate(181.546875 0)"/>
     <use xlink:href="#DejaVuSans-13" transform="translate(265.34375 0)"/>
     <use xlink:href="#DejaVuSans-11" transform="translate(328.96875 0)"/>
     <use xlink:href="#DejaVuSans-13" transform="translate(360.75 0)"/>
     <use xlink:href="#DejaVuSans-17" transform="translate(424.375 0)"/>
    </g>
   </g>
   <g id="layer-run-4">
    <!-- SM +0.18 -->
    <g style="fill: #1f77b4; opacity: 0.9" transform="translate(245.392828 342.303452) scale(0.06 -0.06)">
     <use xlink:href="#DejaVuSans-36"/>
     <use xlink:href="#DejaVuSans-30" transform="translate(63.484375 0)"/>
     <use xlink:href="#DejaVuSans-3" transform="translate(149.765625 0)"/>
     <use xlink:href="#DejaVuSans-e" transform="translate(181.546875 0)"/>
     <use xlink:href="#DejaVuSans-13" transform="translate(265.34375 0)"/>
     <use xlink:href="#DejaVuSans-11" transform="translate(328.96875 0)"/>
     <use xlink:href="#DejaVuSans-14" transform="translate(360.75 0)"/>
     <use xlink:href="#DejaVuSans-1b" transform="translate(424.375 0)"/>
    </g>
   </g>
   <g id="layer-run-5">
    <!-- SM +0.19 -->
    <g style="fill: #1f77b4; opacity: 0.9" transform="translate(290.61025 315.009654) scale(0.06 -0.06)">
     <use xlink:href="#DejaVuSans-36"/>
     <use xlink:href="#DejaVuSans-30" transform="translate(63.484375 0)"/>
     <use xlink:href="#DejaVuSans-3" transform="translate(149.765625 0)"/>
     <use xlink:href="#DejaVuSans-e" transform="translate(181.546875 0)"/>
     <use xlink:href="#DejaVuSans-13" transform="translate(265.34375 0)"/>
     <use xlink:href="#DejaVuSans-11" transform="translate(328.96875 0)"/>
     <use xlink:href="#DejaVuSans-14" transform="translate(360.75 0)"/>
     <use xlink:href="#DejaVuSans-1c" transform="translate(424.375 0)"/>
    </g>
   </g>
   <g id="layer-run-6">
    <!-- SM +0.22 -->
    <g style="fill: #1f77b4; opacity: 0.9" transform="translate(342.24763 276.309045) scale(0.06 -0.06)">
     <use xlink:href="#DejaVuSans-36"/>
     <use xlink:href="#DejaVuSans-30" transform="translate(63.484375 0)"/>
     <use xlink:href="#DejaVuSans-3" transform="translate(149.765625 0)"/>
     <use xlink:href="#DejaVuSans-e" transform="translate(181.546875 0)"/>
     <use xlink:href="#DejaVuSans-13" transform="translate(265.34375 0)"/>
     <use xlink:href="#DejaVuSans-11" transform="translate(328.96875 0)"/>
     <use xlink:href="#DejaVuSans-15" transform="translate(360.75 0)"/>
     <use xlink:href="#DejaVuSans-15" transform="translate(424.375 0)"/>
    </g>
   </g>
   <g id="layer-run-7">
    <!-- SM +0.27 -->
    <g style="fill: #1f77b4; opacity: 0.9" transform="translate(400.248401 220.705062) scale(0.06 -0.06)">
     <use xlink:href="#DejaVuSans-36"/>
     <use xlink:href="#DejaVuSans-30" transform="translate(63.484375 0)"/>
     <use xlink:href="#DejaVuSans-3" transform="translate(149.765625 0)"/>
     <use xlink:href="#DejaVuSans-e" transform="translate(181.546875 0)"/>
     <use xlink:href="#DejaVuSans-13" transform="translate(265.34375 0)"/>
     <use xlink:href="#DejaVuSans-11" transform="translate(328.96875 0)"/>
     <use xlink:href="#DejaVuSans-15" transform="translate(360.75 0)"/>
     <use xlink:href="#DejaVuSans-1a" transform="translate(424.375 0)"/>
    </g>
   </g>
   <g id="layer-run-8">
    <!-- SM +0.19 -->
    <g style="fill: #1f77b4; opacity: 0.9" transform="translate(460.869335 137.836175) scale(0.06 -0.06)">
     <use xlink:href="#DejaVuSans-36"/>
     <use xlink:href="#DejaVuSans-30" transform="translate(63.484375 0)"/>
     <use xlink:href="#DejaVuSans-3" transform="translate(149.765625 0)"/>
     <use xlink:href="#DejaVuSans-e" transform="translate(181.546875 0)"/>
     <use xlink:href="#DejaVuSans-13" transform="translate(265.34375 0)"/>
     <use xlink:href="#DejaVuSans-11" transform="translate(328.96875 0)"/>
     <use xlink:href="#DejaVuSans-14" transform="translate(360.75 0)"/>
     <use xlink:href="#DejaVuSans-1c" transform="translate(424.375 0)"/>
    </g>
   </g>
   <g id="layer-run-9">
    <g id="patch_7">
     <path d="M 153.355213 354.909625 
L 267.109588 354.909625 
Q 268.509588 354.909625 268.509588 353.509625 
L 268.509588 346.509078 
Q 268.509588 345.109078 267.109588 345.109078 
L 153.355213 345.109078 
Q 151.955213 345.109078 151.955213 346.509078 
L 151.955213 353.509625 
Q 151.955213 354.909625 153.355213 354.909625 
z
" style="fill: #ffffff; opacity: 0.9; stroke: #1f77b4; stroke-linejoin: miter"/>
    </g>
    <!-- SM min -0.04 +/-0.077 @ 0.40 N -->
    <g style="fill: #1f77b4" transform="translate(153.355213 351.827984) scale(0.07 -0.07)">
     <defs>
      <path id="DejaVuSans-50" d="M 3328 2828 
Q 3544 3216 3844 3400 
Q 4144 3584 4550 3584 
Q 5097 3584 5394 3201 
Q 5691 2819 5691 2113 
L 5691 0 
L 5113 0 
L 5113 2094 
Q 5113 2597 4934 2840 
Q 4756 3084 4391 3084 
Q 3944 3084 3684 2787 
Q 3425 2491 3425 1978 
L 3425 0 
L 2847 0 
L 2847 2094 
Q 2847 2600 2669 2842 
Q 2491 3084 2119 3084 
Q 1678 3084 1418 2786 
Q 1159 2488 1159 1978 
L 1159 0 
L 581 0 
L 581 3500 
L 1159 3500 
L 1159 2956 
Q 1356 3278 1631 3431 
Q 1906 3584 2284 3584 
Q 2666 3584 2933 3390 
Q 3200 3197 3328 2828 
z
" transform="scale(0.015625)"/>
      <path id="DejaVuSans-51" d="M 3513 2113 
L 3513 0 
L 2938 0 
L 2938 2094 
Q 2938 2591 2744 2837 
Q 2550 3084 2163 3084 
Q 1697 3084 1428 2787 
Q 1159 2491 1159 1978 
L 1159 0 
L 581 0 
L 581 3500 
L 1159 3500 
L 1159 2956 
Q 1366 3272 1645 3428 
Q 1925 3584 2291 3584 
Q 2894 3584 3203 3211 
Q 3513 2838 3513 2113 
z
" transform="scale(0.015625)"/>
      <path id="DejaVuSans-23" d="M 2381 1678 
Q 2381 1231 2603 976 
Q 2825 722 3213 722 
Q 3597 722 3817 978 
Q 4038 1234 4038 1678 
Q 4038 2116 3813 2373 
Q 3588 2631 3206 2631 
Q 2828 2631 2604 2375 
Q 2381 2119 2381 1678 
z
M 4084 744 
Q 3897 503 3655 389 
Q 3413 275 3091 275 
Q 2553 275 2217 664 
Q 1881 1053 1881 1678 
Q 1881 2303 2218 2693 
Q 2556 3084 3091 3084 
Q 3413 3084 3656 2967 
Q 3900 2850 4084 2613 
L 4084 3022 
L 4531 3022 
L 4531 722 
Q 4988 791 5245 1139 
Q 5503 1488 5503 2041 
Q 5503 2375 5404 2669 
Q 5306 2963 5106 3213 
Q 4781 3622 4314 3839 
Q 3847 4056 3297 4056 
Q 2913 4056 2559 3954 
Q 2206 3853 1906 3653 
Q 1416 3334 1139 2817 
Q 863 2300 863 1697 
Q 863 1200 1042 765 
Q 1222 331 1563 0 
Q 1891 -325 2322 -495 
Q 2753 -666 3244 -666 
Q 3647 -666 4036 -530 
Q 4425 -394 4750 -141 
L 5031 -488 
Q 4641 -791 4180 -952 
Q 3719 -1113 3244 -1113 
Q 2666 -1113 2153 -908 
Q 1641 -703 1241 -313 
Q 841 78 631 592 
Q 422 1106 422 1697 
Q 422 2266 634 2781 
Q 847 3297 1241 3688 
Q 1644 4084 2172 4295 
Q 2700 4506 3291 4506 
Q 3953 4506 4520 4234 
Q 5088 3963 5472 3463 
Q 5706 3156 5829 2797 
Q 5953 2438 5953 2053 
Q 5953 1231 5456 756 
Q 4959 281 4084 263 
L 4084 744 
z
" transform="scale(0.015625)"/>
      <path id="DejaVuSans-31" d="M 628 4666 
L 1478 4666 
L 3547 763 
L 3547 4666 
L 4159 4666 
L 4159 0 
L 3309 0 
L 1241 3903 
L 1241 0 
L 628 0 
L 628 4666 
z
" transform="scale(0.015625)"/>
     </defs>
     <use xlink:href="#DejaVuSans-36"/>
     <use xlink:href="#DejaVuSans-30" transform="translate(63.484375 0)"/>
     <use xlink:href="#DejaVuSans-3" transform="translate(149.765625 0)"/>
     <use xlink:href="#DejaVuSans-50" transform="translate(181.546875 0)"/>
     <use xlink:href="#DejaVuSans-4c" transform="translate(278.953125 0)"/>
     <use xlink:href="#DejaVuSans-51" transform="translate(306.734375 0)"/>
     <use xlink:href="#DejaVuSans-3" transform="translate(370.109375 0)"/>
     <use xlink:href="#DejaVuSans-10" transform="translate(401.890625 0)"/>
     <use xlink:href="#DejaVuSans-13" transform="translate(437.96875 0)"/>
     <use xlink:href="#DejaVuSans-11" transform="translate(501.59375 0)"/>
     <use xlink:href="#DejaVuSans-13" transform="translate(533.375 0)"/>
     <use xlink:href="#DejaVuSans-17" transform="translate(597 0)"/>
     <use xlink:href="#DejaVuSans-3" transform="translate(660.625 0)"/>
     <use xlink:href="#DejaVuSans-e" transform="translate(692.40625 0)"/>
     <use xlink:href="#DejaVuSans-12" transform="translate(776.203125 0)"/>
     <use xlink:href="#DejaVuSans-10" transform="translate(809.890625 0)"/>
     <use xlink:href="#DejaVuSans-13" transform="translate(845.96875 0)"/>
     <use xlink:href="#DejaVuSans-11" transform="translate(909.59375 0)"/>
     <use xlink:href="#DejaVuSans-13" transform="translate(941.375 0)"/>
     <use xlink:href="#DejaVuSans-1a" transform="translate(1005 0)"/>
     <use xlink:href="#DejaVuSans-1a" transform="translate(1068.625 0)"/>
     <use xlink:href="#DejaVuSans-3" transform="translate(1132.25 0)"/>
     <use xlink:href="#DejaVuSans-23" transform="translate(1164.03125 0)"/>
     <use xlink:href="#DejaVuSans-3" transform="translate(1264.03125 0)"/>
     <use xlink:href="#DejaVuSans-13" transform="translate(1295.8125 0)"/>
     <use xlink:href="#DejaVuSans-11" transform="translate(1359.4375 0)"/>
     <use xlink:href="#DejaVuSans-17" transform="translate(1391.21875 0)"/>
     <use xlink:href="#DejaVuSans-13" transform="translate(1454.84375 0)"/>
     <use xlink:href="#DejaVuSans-3" transform="translate(1518.46875 0)"/>
     <use xlink:href="#DejaVuSans-31" transform="translate(1550.25 0)"/>
    </g>
   </g>
   <g id="patch_8">
    <path d="M 162.013736 361.624263 
Q 162.540707 361.427149 162.020502 361.621732 
" style="fill: none; stroke: #ff7f0e; stroke-linecap: round"/>
    <path d="M 157.57333 361.149865 
L 162.020502 361.621732 
L 158.974706 364.89635 
" style="fill: none; stroke: #ff7f0e; stroke-linecap: round"/>
   </g>
   <g id="patch_9">
    <path d="M 418.136983 166.598001 
Q 421.283064 162.294526 423.769318 158.893619 
" style="fill: none; stroke: #d62728; stroke-linecap: round"/>
    <path d="M 419.794086 160.942407 
L 423.769318 158.893619 
L 423.02321 163.303077 
" style="fill: none; stroke: #d62728; stroke-linecap: round"/>
   </g>
   <g id="patch_10">
    <path d="M 198.646818 352.655691 
Q 198.644717 352.656635 199.662455 352.199399 
" style="fill: none; stroke: #17becf; stroke-linecap: round"/>
    <path d="M 204.130758 352.384512 
L 199.662455 352.199399 
L 202.491527 348.735824 
" style="fill: none; stroke: #17becf; stroke-linecap: round"/>
   </g>
   <g id="layer-tags-0">
    <g id="patch_11">
     <path d="M 43.64932 37.32929 
L 319.461351 37.32929 
Q 321.561351 37.32929 321.561351 35.22929 
L 321.561351 28.198118 
Q 321.561351 26.098118 319.461351 26.098118 
L 43.64932 26.098118 
Q 41.54932 26.098118 41.54932 28.198118 
L 41.54932 35.22929 
Q 41.54932 37.32929 43.64932 37.32929 
z
" style="fill: #ffffff; opacity: 0.9; stroke: #b2b2b2; stroke-linejoin: miter"/>
    </g>
    <!-- maps L2  |  offdesign L2  |  transient L2  |  surge band L2 (HECC/CC3 residuals) -->
    <g transform="translate(43.64932 33.547649) scale(0.07 -0.07)">
     <defs>
      <path id="DejaVuSans-2f" d="M 628 4666 
L 1259 4666 
L 1259 531 
L 3531 531 
L 3531 0 
L 628 0 
L 628 4666 
z
" transform="scale(0.015625)"/>
      <path id="DejaVuSans-5f" d="M 1344 4891 
L 1344 -1509 
L 813 -1509 
L 813 4891 
L 1344 4891 
z
" transform="scale(0.015625)"/>
      <path id="DejaVuSans-13ae" d="M 4531 4863 
L 4531 4384 
L 3981 4384 
Q 3672 4384 3551 4259 
Q 3431 4134 3431 3809 
L 3431 3500 
L 4378 3500 
L 4378 3053 
L 3431 3053 
L 3431 0 
L 2853 0 
L 2853 3053 
L 1275 3053 
L 1275 0 
L 697 0 
L 697 3053 
L 147 3053 
L 147 3500 
L 697 3500 
L 697 3744 
Q 697 4328 969 4595 
Q 1241 4863 1831 4863 
L 2375 4863 
L 2375 4384 
L 1825 4384 
Q 1516 4384 1394 4259 
Q 1275 4134 1275 3809 
L 1275 3500 
L 2853 3500 
L 2853 3744 
Q 2853 4328 3125 4595 
Q 3397 4863 3988 4863 
L 4531 4863 
z
" transform="scale(0.015625)"/>
      <path id="DejaVuSans-45" d="M 3116 1747 
Q 3116 2381 2855 2742 
Q 2594 3103 2138 3103 
Q 1681 3103 1420 2742 
Q 1159 2381 1159 1747 
Q 1159 1113 1420 752 
Q 1681 391 2138 391 
Q 2594 391 2855 752 
Q 3116 1113 3116 1747 
z
M 1159 2969 
Q 1341 3281 1617 3432 
Q 1894 3584 2278 3584 
Q 2916 3584 3314 3078 
Q 3713 2572 3713 1747 
Q 3713 922 3314 415 
Q 2916 -91 2278 -91 
Q 1894 -91 1617 61 
Q 1341 213 1159 525 
L 1159 0 
L 581 0 
L 581 4863 
L 1159 4863 
L 1159 2969 
z
" transform="scale(0.015625)"/>
      <path id="DejaVuSans-2b" d="M 628 4666 
L 1259 4666 
L 1259 2753 
L 3553 2753 
L 3553 4666 
L 4184 4666 
L 4184 0 
L 3553 0 
L 3553 2222 
L 1259 2222 
L 1259 0 
L 628 0 
L 628 4666 
z
" transform="scale(0.015625)"/>
      <path id="DejaVuSans-28" d="M 628 4666 
L 3578 4666 
L 3578 4134 
L 1259 4134 
L 1259 2753 
L 3481 2753 
L 3481 2222 
L 1259 2222 
L 1259 531 
L 3634 531 
L 3634 0 
L 628 0 
L 628 4666 
z
" transform="scale(0.015625)"/>
      <path id="DejaVuSans-26" d="M 4122 4306 
L 4122 3641 
Q 3803 3938 3442 4084 
Q 3081 4231 2675 4231 
Q 1875 4231 1450 3742 
Q 1025 3253 1025 2328 
Q 1025 1406 1450 917 
Q 1875 428 2675 428 
Q 3081 428 3442 575 
Q 3803 722 4122 1019 
L 4122 359 
Q 3791 134 3420 21 
Q 3050 -91 2638 -91 
Q 1578 -91 968 557 
Q 359 1206 359 2328 
Q 359 3453 968 4101 
Q 1578 4750 2638 4750 
Q 3056 4750 3426 4639 
Q 3797 4528 4122 4306 
z
" transform="scale(0.015625)"/>
     </defs>
     <use xlink:href="#DejaVuSans-50"/>
     <use xlink:href="#DejaVuSans-44" transform="translate(97.40625 0)"/>
     <use xlink:href="#DejaVuSans-53" transform="translate(158.6875 0)"/>
     <use xlink:href="#DejaVuSans-56" transform="translate(222.171875 0)"/>
     <use xlink:href="#DejaVuSans-3" transform="translate(274.265625 0)"/>
     <use xlink:href="#DejaVuSans-2f" transform="translate(306.046875 0)"/>
     <use xlink:href="#DejaVuSans-15" transform="translate(361.765625 0)"/>
     <use xlink:href="#DejaVuSans-3" transform="translate(425.390625 0)"/>
     <use xlink:href="#DejaVuSans-3" transform="translate(457.171875 0)"/>
     <use xlink:href="#DejaVuSans-5f" transform="translate(488.953125 0)"/>
     <use xlink:href="#DejaVuSans-3" transform="translate(522.640625 0)"/>
     <use xlink:href="#DejaVuSans-3" transform="translate(554.421875 0)"/>
     <use xlink:href="#DejaVuSans-52" transform="translate(586.203125 0)"/>
     <use xlink:href="#DejaVuSans-13ae" transform="translate(647.390625 0)"/>
     <use xlink:href="#DejaVuSans-47" transform="translate(716.28125 0)"/>
     <use xlink:href="#DejaVuSans-48" transform="translate(779.765625 0)"/>
     <use xlink:href="#DejaVuSans-56" transform="translate(841.296875 0)"/>
     <use xlink:href="#DejaVuSans-4c" transform="translate(893.390625 0)"/>
     <use xlink:href="#DejaVuSans-4a" transform="translate(921.171875 0)"/>
     <use xlink:href="#DejaVuSans-51" transform="translate(984.65625 0)"/>
     <use xlink:href="#DejaVuSans-3" transform="translate(1048.03125 0)"/>
     <use xlink:href="#DejaVuSans-2f" transform="translate(1079.8125 0)"/>
     <use xlink:href="#DejaVuSans-15" transform="translate(1135.53125 0)"/>
     <use xlink:href="#DejaVuSans-3" transform="translate(1199.15625 0)"/>
     <use xlink:href="#DejaVuSans-3" transform="translate(1230.9375 0)"/>
     <use xlink:href="#DejaVuSans-5f" transform="translate(1262.71875 0)"/>
     <use xlink:href="#DejaVuSans-3" transform="translate(1296.40625 0)"/>
     <use xlink:href="#DejaVuSans-3" transform="translate(1328.1875 0)"/>
     <use xlink:href="#DejaVuSans-57" transform="translate(1359.96875 0)"/>
     <use xlink:href="#DejaVuSans-55" transform="translate(1399.171875 0)"/>
     <use xlink:href="#DejaVuSans-44" transform="translate(1440.28125 0)"/>
     <use xlink:href="#DejaVuSans-51" transform="translate(1501.5625 0)"/>
     <use xlink:href="#DejaVuSans-56" transform="translate(1564.9375 0)"/>
     <use xlink:href="#DejaVuSans-4c" transform="translate(1617.03125 0)"/>
     <use xlink:href="#DejaVuSans-48" transform="translate(1644.8125 0)"/>
     <use xlink:href="#DejaVuSans-51" transform="translate(1706.34375 0)"/>
     <use xlink:href="#DejaVuSans-57" transform="translate(1769.71875 0)"/>
     <use xlink:href="#DejaVuSans-3" transform="translate(1808.921875 0)"/>
     <use xlink:href="#DejaVuSans-2f" transform="translate(1840.703125 0)"/>
     <use xlink:href="#DejaVuSans-15" transform="translate(1896.421875 0)"/>
     <use xlink:href="#DejaVuSans-3" transform="translate(1960.046875 0)"/>
     <use xlink:href="#DejaVuSans-3" transform="translate(1991.828125 0)"/>
     <use xlink:href="#DejaVuSans-5f" transform="translate(2023.609375 0)"/>
     <use xlink:href="#DejaVuSans-3" transform="translate(2057.296875 0)"/>
     <use xlink:href="#DejaVuSans-3" transform="translate(2089.078125 0)"/>
     <use xlink:href="#DejaVuSans-56" transform="translate(2120.859375 0)"/>
     <use xlink:href="#DejaVuSans-58" transform="translate(2172.953125 0)"/>
     <use xlink:href="#DejaVuSans-55" transform="translate(2236.328125 0)"/>
     <use xlink:href="#DejaVuSans-4a" transform="translate(2275.6875 0)"/>
     <use xlink:href="#DejaVuSans-48" transform="translate(2339.171875 0)"/>
     <use xlink:href="#DejaVuSans-3" transform="translate(2400.703125 0)"/>
     <use xlink:href="#DejaVuSans-45" transform="translate(2432.484375 0)"/>
     <use xlink:href="#DejaVuSans-44" transform="translate(2495.96875 0)"/>
     <use xlink:href="#DejaVuSans-51" transform="translate(2557.25 0)"/>
     <use xlink:href="#DejaVuSans-47" transform="translate(2620.625 0)"/>
     <use xlink:href="#DejaVuSans-3" transform="translate(2684.109375 0)"/>
     <use xlink:href="#DejaVuSans-2f" transform="translate(2715.890625 0)"/>
     <use xlink:href="#DejaVuSans-15" transform="translate(2771.609375 0)"/>
     <use xlink:href="#DejaVuSans-3" transform="translate(2835.234375 0)"/>
     <use xlink:href="#DejaVuSans-b" transform="translate(2867.015625 0)"/>
     <use xlink:href="#DejaVuSans-2b" transform="translate(2906.03125 0)"/>
     <use xlink:href="#DejaVuSans-28" transform="translate(2981.234375 0)"/>
     <use xlink:href="#DejaVuSans-26" transform="translate(3044.421875 0)"/>
     <use xlink:href="#DejaVuSans-26" transform="translate(3114.25 0)"/>
     <use xlink:href="#DejaVuSans-12" transform="translate(3184.078125 0)"/>
     <use xlink:href="#DejaVuSans-26" transform="translate(3217.765625 0)"/>
     <use xlink:href="#DejaVuSans-26" transform="translate(3287.59375 0)"/>
     <use xlink:href="#DejaVuSans-16" transform="translate(3357.421875 0)"/>
     <use xlink:href="#DejaVuSans-3" transform="translate(3421.046875 0)"/>
     <use xlink:href="#DejaVuSans-55" transform="translate(3452.828125 0)"/>
     <use xlink:href="#DejaVuSans-48" transform="translate(3491.734375 0)"/>
     <use xlink:href="#DejaVuSans-56" transform="translate(3553.265625 0)"/>
     <use xlink:href="#DejaVuSans-4c" transform="translate(3605.359375 0)"/>
     <use xlink:href="#DejaVuSans-47" transform="translate(3633.140625 0)"/>
     <use xlink:href="#DejaVuSans-58" transform="translate(3696.625 0)"/>
     <use xlink:href="#DejaVuSans-44" transform="translate(3760 0)"/>
     <use xlink:href="#DejaVuSans-4f" transform="translate(3821.28125 0)"/>
     <use xlink:href="#DejaVuSans-56" transform="translate(3849.0625 0)"/>
     <use xlink:href="#DejaVuSans-c" transform="translate(3901.15625 0)"/>
    </g>
   </g>
   <g id="text_15">
    <!-- p500 compressor map -->
    <g transform="translate(261.885717 18.397656) scale(0.1 -0.1)">
     <use xlink:href="#DejaVuSans-53"/>
     <use xlink:href="#DejaVuSans-18" transform="translate(63.484375 0)"/>
     <use xlink:href="#DejaVuSans-13" transform="translate(127.109375 0)"/>
     <use xlink:href="#DejaVuSans-13" transform="translate(190.734375 0)"/>
     <use xlink:href="#DejaVuSans-3" transform="translate(254.359375 0)"/>
     <use xlink:href="#DejaVuSans-46" transform="translate(286.140625 0)"/>
     <use xlink:href="#DejaVuSans-52" transform="translate(341.125 0)"/>
     <use xlink:href="#DejaVuSans-50" transform="translate(402.3125 0)"/>
     <use xlink:href="#DejaVuSans-53" transform="translate(499.71875 0)"/>
     <use xlink:href="#DejaVuSans-55" transform="translate(563.203125 0)"/>
     <use xlink:href="#DejaVuSans-48" transform="translate(602.109375 0)"/>
     <use xlink:href="#DejaVuSans-56" transform="translate(663.640625 0)"/>
     <use xlink:href="#DejaVuSans-56" transform="translate(715.734375 0)"/>
     <use xlink:href="#DejaVuSans-52" transform="translate(767.828125 0)"/>
     <use xlink:href="#DejaVuSans-55" transform="translate(829.015625 0)"/>
     <use xlink:href="#DejaVuSans-3" transform="translate(870.125 0)"/>
     <use xlink:href="#DejaVuSans-50" transform="translate(901.90625 0)"/>
     <use xlink:href="#DejaVuSans-44" transform="translate(999.3125 0)"/>
     <use xlink:href="#DejaVuSans-53" transform="translate(1060.59375 0)"/>
    </g>
   </g>
   <g id="text_16">
    <g clip-path="url(#p0a6b5d87cd)">
     <!-- 0.65 -->
     <g style="fill: #2ca02c; opacity: 0.8" transform="translate(199.592334 365.372206) rotate(-17.529001) scale(0.06 -0.06)">
      <use xlink:href="#DejaVuSans-13"/>
      <use xlink:href="#DejaVuSans-11" transform="translate(63.625 0)"/>
      <use xlink:href="#DejaVuSans-19" transform="translate(95.40625 0)"/>
      <use xlink:href="#DejaVuSans-18" transform="translate(159.03125 0)"/>
     </g>
    </g>
   </g>
   <g id="text_17">
    <g clip-path="url(#p0a6b5d87cd)">
     <!-- 0.70 -->
     <g style="fill: #2ca02c; opacity: 0.8" transform="translate(180.984115 363.926954) rotate(-17.606768) scale(0.06 -0.06)">
      <use xlink:href="#DejaVuSans-13"/>
      <use xlink:href="#DejaVuSans-11" transform="translate(63.625 0)"/>
      <use xlink:href="#DejaVuSans-1a" transform="translate(95.40625 0)"/>
      <use xlink:href="#DejaVuSans-13" transform="translate(159.03125 0)"/>
     </g>
    </g>
   </g>
   <g id="text_18">
    <g clip-path="url(#p0a6b5d87cd)">
     <!-- 0.75 -->
     <g style="fill: #2ca02c; opacity: 0.8" transform="translate(217.957188 342.489331) rotate(-21.777565) scale(0.06 -0.06)">
      <use xlink:href="#DejaVuSans-13"/>
      <use xlink:href="#DejaVuSans-11" transform="translate(63.625 0)"/>
      <use xlink:href="#DejaVuSans-1a" transform="translate(95.40625 0)"/>
      <use xlink:href="#DejaVuSans-18" transform="translate(159.03125 0)"/>
     </g>
    </g>
   </g>
   <g id="text_19">
    <g clip-path="url(#p0a6b5d87cd)">
     <!-- 0.80 -->
     <g style="fill: #2ca02c; opacity: 0.8" transform="translate(273.255528 299.13885) rotate(-35.271237) scale(0.06 -0.06)">
      <use xlink:href="#DejaVuSans-13"/>
      <use xlink:href="#DejaVuSans-11" transform="translate(63.625 0)"/>
      <use xlink:href="#DejaVuSans-1b" transform="translate(95.40625 0)"/>
      <use xlink:href="#DejaVuSans-13" transform="translate(159.03125 0)"/>
     </g>
    </g>
   </g>
   <g id="text_20">
    <g clip-path="url(#p0a6b5d87cd)">
     <!-- 0.82 -->
     <g style="fill: #2ca02c; opacity: 0.8" transform="translate(337.079438 238.36798) rotate(-37.862075) scale(0.06 -0.06)">
      <use xlink:href="#DejaVuSans-13"/>
      <use xlink:href="#DejaVuSans-11" transform="translate(63.625 0)"/>
      <use xlink:href="#DejaVuSans-1b" transform="translate(95.40625 0)"/>
      <use xlink:href="#DejaVuSans-15" transform="translate(159.03125 0)"/>
     </g>
    </g>
   </g>
   <g id="text_21">
    <g clip-path="url(#p0a6b5d87cd)">
     <!-- 0.84 -->
     <g style="fill: #2ca02c; opacity: 0.8" transform="translate(430.416856 118.865078) rotate(-46.647222) scale(0.06 -0.06)">
      <use xlink:href="#DejaVuSans-13"/>
      <use xlink:href="#DejaVuSans-11" transform="translate(63.625 0)"/>
      <use xlink:href="#DejaVuSans-1b" transform="translate(95.40625 0)"/>
      <use xlink:href="#DejaVuSans-17" transform="translate(159.03125 0)"/>
     </g>
    </g>
   </g>
   <g id="legend_1">
    <g id="patch_12">
     <path d="M 431.068092 400.94381 
L 593.230749 400.94381 
Q 594.630749 400.94381 594.630749 399.54381 
L 594.630749 305.738888 
Q 594.630749 304.338888 593.230749 304.338888 
L 431.068092 304.338888 
Q 429.668092 304.338888 429.668092 305.738888 
L 429.668092 399.54381 
Q 429.668092 400.94381 431.068092 400.94381 
z
" style="fill: #ffffff; opacity: 0.8; stroke: #cccccc; stroke-linejoin: miter"/>
    </g>
    <g id="patch_13">
     <path d="M 432.468092 312.457794 
L 446.468092 312.457794 
L 446.468092 307.557794 
L 432.468092 307.557794 
z
" style="fill: #d62728; fill-opacity: 0.15"/>
    </g>
    <g id="text_22">
     <!-- surge band +/-0.077 SM (rig-calibrated) -->
     <g transform="translate(452.068092 312.457794) scale(0.07 -0.07)">
      <use xlink:href="#DejaVuSans-56"/>
      <use xlink:href="#DejaVuSans-58" transform="translate(52.09375 0)"/>
      <use xlink:href="#DejaVuSans-55" transform="translate(115.46875 0)"/>
      <use xlink:href="#DejaVuSans-4a" transform="translate(154.828125 0)"/>
      <use xlink:href="#DejaVuSans-48" transform="translate(218.3125 0)"/>
      <use xlink:href="#DejaVuSans-3" transform="translate(279.84375 0)"/>
      <use xlink:href="#DejaVuSans-45" transform="translate(311.625 0)"/>
      <use xlink:href="#DejaVuSans-44" transform="translate(375.109375 0)"/>
      <use xlink:href="#DejaVuSans-51" transform="translate(436.390625 0)"/>
      <use xlink:href="#DejaVuSans-47" transform="translate(499.765625 0)"/>
      <use xlink:href="#DejaVuSans-3" transform="translate(563.25 0)"/>
      <use xlink:href="#DejaVuSans-e" transform="translate(595.03125 0)"/>
      <use xlink:href="#DejaVuSans-12" transform="translate(678.828125 0)"/>
      <use xlink:href="#DejaVuSans-10" transform="translate(712.515625 0)"/>
      <use xlink:href="#DejaVuSans-13" transform="translate(748.59375 0)"/>
      <use xlink:href="#DejaVuSans-11" transform="translate(812.21875 0)"/>
      <use xlink:href="#DejaVuSans-13" transform="translate(844 0)"/>
      <use xlink:href="#DejaVuSans-1a" transform="translate(907.625 0)"/>
      <use xlink:href="#DejaVuSans-1a" transform="translate(971.25 0)"/>
      <use xlink:href="#DejaVuSans-3" transform="translate(1034.875 0)"/>
      <use xlink:href="#DejaVuSans-36" transform="translate(1066.65625 0)"/>
      <use xlink:href="#DejaVuSans-30" transform="translate(1130.140625 0)"/>
      <use xlink:href="#DejaVuSans-3" transform="translate(1216.421875 0)"/>
      <use xlink:href="#DejaVuSans-b" transform="translate(1248.203125 0)"/>
      <use xlink:href="#DejaVuSans-55" transform="translate(1287.21875 0)"/>
      <use xlink:href="#DejaVuSans-4c" transform="translate(1328.328125 0)"/>
      <use xlink:href="#DejaVuSans-4a" transform="translate(1356.109375 0)"/>
      <use xlink:href="#DejaVuSans-10" transform="translate(1419.59375 0)"/>
      <use xlink:href="#DejaVuSans-46" transform="translate(1455.671875 0)"/>
      <use xlink:href="#DejaVuSans-44" transform="translate(1510.65625 0)"/>
      <use xlink:href="#DejaVuSans-4f" transform="translate(1571.9375 0)"/>
      <use xlink:href="#DejaVuSans-4c" transform="translate(1599.71875 0)"/>
      <use xlink:href="#DejaVuSans-45" transform="translate(1627.5 0)"/>
      <use xlink:href="#DejaVuSans-55" transform="translate(1690.984375 0)"/>
      <use xlink:href="#DejaVuSans-44" transform="translate(1732.09375 0)"/>
      <use xlink:href="#DejaVuSans-57" transform="translate(1793.375 0)"/>
      <use xlink:href="#DejaVuSans-48" transform="translate(1832.578125 0)"/>
      <use xlink:href="#DejaVuSans-47" transform="translate(1894.109375 0)"/>
      <use xlink:href="#DejaVuSans-c" transform="translate(1957.59375 0)"/>
     </g>
    </g>
    <g id="line2d_25">
     <path d="M 432.468092 320.508341 
L 439.468092 320.508341 
L 446.468092 320.508341 
" style="fill: none; stroke: #d62728; stroke-width: 1.6; stroke-linecap: square"/>
    </g>
    <g id="text_23">
     <!-- surge line (loss-model stall onset) -->
     <g transform="translate(452.068092 322.958341) scale(0.07 -0.07)">
      <use xlink:href="#DejaVuSans-56"/>
      <use xlink:href="#DejaVuSans-58" transform="translate(52.09375 0)"/>
      <use xlink:href="#DejaVuSans-55" transform="translate(115.46875 0)"/>
      <use xlink:href="#DejaVuSans-4a" transform="translate(154.828125 0)"/>
      <use xlink:href="#DejaVuSans-48" transform="translate(218.3125 0)"/>
      <use xlink:href="#DejaVuSans-3" transform="translate(279.84375 0)"/>
      <use xlink:href="#DejaVuSans-4f" transform="translate(311.625 0)"/>
      <use xlink:href="#DejaVuSans-4c" transform="translate(339.40625 0)"/>
      <use xlink:href="#DejaVuSans-51" transform="translate(367.1875 0)"/>
      <use xlink:href="#DejaVuSans-48" transform="translate(430.5625 0)"/>
      <use xlink:href="#DejaVuSans-3" transform="translate(492.09375 0)"/>
      <use xlink:href="#DejaVuSans-b" transform="translate(523.875 0)"/>
      <use xlink:href="#DejaVuSans-4f" transform="translate(562.890625 0)"/>
      <use xlink:href="#DejaVuSans-52" transform="translate(590.671875 0)"/>
      <use xlink:href="#DejaVuSans-56" transform="translate(651.859375 0)"/>
      <use xlink:href="#DejaVuSans-56" transform="translate(703.953125 0)"/>
      <use xlink:href="#DejaVuSans-10" transform="translate(756.046875 0)"/>
      <use xlink:href="#DejaVuSans-50" transform="translate(792.125 0)"/>
      <use xlink:href="#DejaVuSans-52" transform="translate(889.53125 0)"/>
      <use xlink:href="#DejaVuSans-47" transform="translate(950.71875 0)"/>
      <use xlink:href="#DejaVuSans-48" transform="translate(1014.203125 0)"/>
      <use xlink:href="#DejaVuSans-4f" transform="translate(1075.734375 0)"/>
      <use xlink:href="#DejaVuSans-3" transform="translate(1103.515625 0)"/>
      <use xlink:href="#DejaVuSans-56" transform="translate(1135.296875 0)"/>
      <use xlink:href="#DejaVuSans-57" transform="translate(1187.390625 0)"/>
      <use xlink:href="#DejaVuSans-44" transform="translate(1226.59375 0)"/>
      <use xlink:href="#DejaVuSans-4f" transform="translate(1287.875 0)"/>
      <use xlink:href="#DejaVuSans-4f" transform="translate(1315.65625 0)"/>
      <use xlink:href="#DejaVuSans-3" transform="translate(1343.4375 0)"/>
      <use xlink:href="#DejaVuSans-52" transform="translate(1375.21875 0)"/>
      <use xlink:href="#DejaVuSans-51" transform="translate(1436.40625 0)"/>
      <use xlink:href="#DejaVuSans-56" transform="translate(1499.78125 0)"/>
      <use xlink:href="#DejaVuSans-48" transform="translate(1551.875 0)"/>
      <use xlink:href="#DejaVuSans-57" transform="translate(1613.40625 0)"/>
      <use xlink:href="#DejaVuSans-c" transform="translate(1652.609375 0)"/>
     </g>
    </g>
    <g id="patch_14">
     <path d="M 432.468092 333.458888 
L 446.468092 333.458888 
L 446.468092 328.558888 
L 432.468092 328.558888 
z
" style="fill: url(#h4210e95220)"/>
    </g>
    <g id="text_24">
     <!-- stalled (model) -->
     <g transform="translate(452.068092 333.458888) scale(0.07 -0.07)">
      <use xlink:href="#DejaVuSans-56"/>
      <use xlink:href="#DejaVuSans-57" transform="translate(52.09375 0)"/>
      <use xlink:href="#DejaVuSans-44" transform="translate(91.296875 0)"/>
      <use xlink:href="#DejaVuSans-4f" transform="translate(152.578125 0)"/>
      <use xlink:href="#DejaVuSans-4f" transform="translate(180.359375 0)"/>
      <use xlink:href="#DejaVuSans-48" transform="translate(208.140625 0)"/>
      <use xlink:href="#DejaVuSans-47" transform="translate(269.671875 0)"/>
      <use xlink:href="#DejaVuSans-3" transform="translate(333.15625 0)"/>
      <use xlink:href="#DejaVuSans-b" transform="translate(364.9375 0)"/>
      <use xlink:href="#DejaVuSans-50" transform="translate(403.953125 0)"/>
      <use xlink:href="#DejaVuSans-52" transform="translate(501.359375 0)"/>
      <use xlink:href="#DejaVuSans-47" transform="translate(562.546875 0)"/>
      <use xlink:href="#DejaVuSans-48" transform="translate(626.03125 0)"/>
      <use xlink:href="#DejaVuSans-4f" transform="translate(687.5625 0)"/>
      <use xlink:href="#DejaVuSans-c" transform="translate(715.34375 0)"/>
     </g>
    </g>
    <g id="line2d_26">
     <path d="M 432.468092 341.509435 
L 439.468092 341.509435 
L 446.468092 341.509435 
" style="fill: none; stroke-dasharray: 4.44,1.92; stroke-dashoffset: 0; stroke: #9467bd; stroke-width: 1.2"/>
    </g>
    <g id="text_25">
     <!-- choke line -->
     <g transform="translate(452.068092 343.959435) scale(0.07 -0.07)">
      <use xlink:href="#DejaVuSans-46"/>
      <use xlink:href="#DejaVuSans-4b" transform="translate(54.984375 0)"/>
      <use xlink:href="#DejaVuSans-52" transform="translate(118.359375 0)"/>
      <use xlink:href="#DejaVuSans-4e" transform="translate(179.546875 0)"/>
      <use xlink:href="#DejaVuSans-48" transform="translate(233.890625 0)"/>
      <use xlink:href="#DejaVuSans-3" transform="translate(295.421875 0)"/>
      <use xlink:href="#DejaVuSans-4f" transform="translate(327.203125 0)"/>
      <use xlink:href="#DejaVuSans-4c" transform="translate(354.984375 0)"/>
      <use xlink:href="#DejaVuSans-51" transform="translate(382.765625 0)"/>
      <use xlink:href="#DejaVuSans-48" transform="translate(446.140625 0)"/>
     </g>
    </g>
    <g id="line2d_27">
     <path d="M 432.468092 352.009982 
L 439.468092 352.009982 
L 446.468092 352.009982 
" style="fill: none; stroke: #1f77b4; stroke-width: 1.8; stroke-linecap: square"/>
    </g>
    <g id="text_26">
     <!-- running line -->
     <g transform="translate(452.068092 354.459982) scale(0.07 -0.07)">
      <use xlink:href="#DejaVuSans-55"/>
      <use xlink:href="#DejaVuSans-58" transform="translate(41.109375 0)"/>
      <use xlink:href="#DejaVuSans-51" transform="translate(104.484375 0)"/>
      <use xlink:href="#DejaVuSans-51" transform="translate(167.859375 0)"/>
      <use xlink:href="#DejaVuSans-4c" transform="translate(231.234375 0)"/>
      <use xlink:href="#DejaVuSans-51" transform="translate(259.015625 0)"/>
      <use xlink:href="#DejaVuSans-4a" transform="translate(322.390625 0)"/>
      <use xlink:href="#DejaVuSans-3" transform="translate(385.875 0)"/>
      <use xlink:href="#DejaVuSans-4f" transform="translate(417.65625 0)"/>
      <use xlink:href="#DejaVuSans-4c" transform="translate(445.4375 0)"/>
      <use xlink:href="#DejaVuSans-51" transform="translate(473.21875 0)"/>
      <use xlink:href="#DejaVuSans-48" transform="translate(536.59375 0)"/>
     </g>
    </g>
    <g id="line2d_28">
     <path d="M 432.468092 362.510529 
L 439.468092 362.510529 
L 446.468092 362.510529 
" style="fill: none; stroke: #ff7f0e; stroke-opacity: 0.9; stroke-linecap: square"/>
    </g>
    <g id="text_27">
     <!-- transient: start -->
     <g transform="translate(452.068092 364.960529) scale(0.07 -0.07)">
      <defs>
       <path id="DejaVuSans-1d" d="M 750 794 
L 1409 794 
L 1409 0 
L 750 0 
L 750 794 
z
M 750 3309 
L 1409 3309 
L 1409 2516 
L 750 2516 
L 750 3309 
z
" transform="scale(0.015625)"/>
      </defs>
      <use xlink:href="#DejaVuSans-57"/>
      <use xlink:href="#DejaVuSans-55" transform="translate(39.203125 0)"/>
      <use xlink:href="#DejaVuSans-44" transform="translate(80.3125 0)"/>
      <use xlink:href="#DejaVuSans-51" transform="translate(141.59375 0)"/>
      <use xlink:href="#DejaVuSans-56" transform="translate(204.96875 0)"/>
      <use xlink:href="#DejaVuSans-4c" transform="translate(257.0625 0)"/>
      <use xlink:href="#DejaVuSans-48" transform="translate(284.84375 0)"/>
      <use xlink:href="#DejaVuSans-51" transform="translate(346.375 0)"/>
      <use xlink:href="#DejaVuSans-57" transform="translate(409.75 0)"/>
      <use xlink:href="#DejaVuSans-1d" transform="translate(448.953125 0)"/>
      <use xlink:href="#DejaVuSans-3" transform="translate(482.640625 0)"/>
      <use xlink:href="#DejaVuSans-56" transform="translate(514.421875 0)"/>
      <use xlink:href="#DejaVuSans-57" transform="translate(566.515625 0)"/>
      <use xlink:href="#DejaVuSans-44" transform="translate(605.71875 0)"/>
      <use xlink:href="#DejaVuSans-55" transform="translate(667 0)"/>
      <use xlink:href="#DejaVuSans-57" transform="translate(708.109375 0)"/>
     </g>
    </g>
    <g id="line2d_29">
     <path d="M 432.468092 373.011076 
L 439.468092 373.011076 
L 446.468092 373.011076 
" style="fill: none; stroke: #d62728; stroke-opacity: 0.9; stroke-linecap: square"/>
    </g>
    <g id="text_28">
     <!-- transient: accel -->
     <g transform="translate(452.068092 375.461076) scale(0.07 -0.07)">
      <use xlink:href="#DejaVuSans-57"/>
      <use xlink:href="#DejaVuSans-55" transform="translate(39.203125 0)"/>
      <use xlink:href="#DejaVuSans-44" transform="translate(80.3125 0)"/>
      <use xlink:href="#DejaVuSans-51" transform="translate(141.59375 0)"/>
      <use xlink:href="#DejaVuSans-56" transform="translate(204.96875 0)"/>
      <use xlink:href="#DejaVuSans-4c" transform="translate(257.0625 0)"/>
      <use xlink:href="#DejaVuSans-48" transform="translate(284.84375 0)"/>
      <use xlink:href="#DejaVuSans-51" transform="translate(346.375 0)"/>
      <use xlink:href="#DejaVuSans-57" transform="translate(409.75 0)"/>
      <use xlink:href="#DejaVuSans-1d" transform="translate(448.953125 0)"/>
      <use xlink:href="#DejaVuSans-3" transform="translate(482.640625 0)"/>
      <use xlink:href="#DejaVuSans-44" transform="translate(514.421875 0)"/>
      <use xlink:href="#DejaVuSans-46" transform="translate(575.703125 0)"/>
      <use xlink:href="#DejaVuSans-46" transform="translate(630.6875 0)"/>
      <use xlink:href="#DejaVuSans-48" transform="translate(685.671875 0)"/>
      <use xlink:href="#DejaVuSans-4f" transform="translate(747.203125 0)"/>
     </g>
    </g>
    <g id="line2d_30">
     <path d="M 432.468092 383.511623 
L 439.468092 383.511623 
L 446.468092 383.511623 
" style="fill: none; stroke: #17becf; stroke-opacity: 0.9; stroke-linecap: square"/>
    </g>
    <g id="text_29">
     <!-- transient: decel -->
     <g transform="translate(452.068092 385.961623) scale(0.07 -0.07)">
      <use xlink:href="#DejaVuSans-57"/>
      <use xlink:href="#DejaVuSans-55" transform="translate(39.203125 0)"/>
      <use xlink:href="#DejaVuSans-44" transform="translate(80.3125 0)"/>
      <use xlink:href="#DejaVuSans-51" transform="translate(141.59375 0)"/>
      <use xlink:href="#DejaVuSans-56" transform="translate(204.96875 0)"/>
      <use xlink:href="#DejaVuSans-4c" transform="translate(257.0625 0)"/>
      <use xlink:href="#DejaVuSans-48" transform="translate(284.84375 0)"/>
      <use xlink:href="#DejaVuSans-51" transform="translate(346.375 0)"/>
      <use xlink:href="#DejaVuSans-57" transform="translate(409.75 0)"/>
      <use xlink:href="#DejaVuSans-1d" transform="translate(448.953125 0)"/>
      <use xlink:href="#DejaVuSans-3" transform="translate(482.640625 0)"/>
      <use xlink:href="#DejaVuSans-47" transform="translate(514.421875 0)"/>
      <use xlink:href="#DejaVuSans-48" transform="translate(577.90625 0)"/>
      <use xlink:href="#DejaVuSans-46" transform="translate(639.4375 0)"/>
      <use xlink:href="#DejaVuSans-48" transform="translate(694.421875 0)"/>
      <use xlink:href="#DejaVuSans-4f" transform="translate(755.953125 0)"/>
     </g>
    </g>
    <g id="line2d_31">
     <g>
      <use xlink:href="#m36b04c789f" x="439.468092" y="394.012169" style="stroke: #000000; stroke-linejoin: bevel"/>
     </g>
    </g>
    <g id="text_30">
     <!-- design point -->
     <g transform="translate(452.068092 396.462169) scale(0.07 -0.07)">
      <use xlink:href="#DejaVuSans-47"/>
      <use xlink:href="#DejaVuSans-48" transform="translate(63.484375 0)"/>
      <use xlink:href="#DejaVuSans-56" transform="translate(125.015625 0)"/>
      <use xlink:href="#DejaVuSans-4c" transform="translate(177.109375 0)"/>
      <use xlink:href="#DejaVuSans-4a" transform="translate(204.890625 0)"/>
      <use xlink:href="#DejaVuSans-51" transform="translate(268.375 0)"/>
      <use xlink:href="#DejaVuSans-3" transform="translate(331.75 0)"/>
      <use xlink:href="#DejaVuSans-53" transform="translate(363.53125 0)"/>
      <use xlink:href="#DejaVuSans-52" transform="translate(427.015625 0)"/>
      <use xlink:href="#DejaVuSans-4c" transform="translate(488.203125 0)"/>
      <use xlink:href="#DejaVuSans-51" transform="translate(515.984375 0)"/>
      <use xlink:href="#DejaVuSans-57" transform="translate(579.359375 0)"/>
     </g>
    </g>
   </g>
  </g>
 </g>
 <defs>
  <clipPath id="p0a6b5d87cd">
   <rect x="38.048498" y="24.397656" width="560.082251" height="380.046154"/>
  </clipPath>
 </defs>
 <defs>
  <pattern id="h4210e95220" patternUnits="userSpaceOnUse" x="0" y="0" width="72" height="72">
   <rect x="0" y="0" width="73" height="73" fill="none"/>
   <path d="M -36 36 
L 36 -36 
M -32 40 
L 40 -32 
M -28 44 
L 44 -28 
M -24 48 
L 48 -24 
M -20 52 
L 52 -20 
M -16 56 
L 56 -16 
M -12 60 
L 60 -12 
M -8 64 
L 64 -8 
M -4 68 
L 68 -4 
M 0 72 
L 72 0 
M 4 76 
L 76 4 
M 8 80 
L 80 8 
M 12 84 
L 84 12 
M 16 88 
L 88 16 
M 20 92 
L 92 20 
M 24 96 
L 96 24 
M 28 100 
L 100 28 
M 32 104 
L 104 32 
M 36 108 
L 108 36 
" style="fill: #d62728; stroke: #d62728; stroke-width: 1.0; stroke-linecap: butt; stroke-linejoin: miter; stroke-opacity: 0.25"/>
  </pattern>
 </defs>
</svg>
